<mxfile modified="2023-08-15T06:28:25.460Z" host="Electron" agent="Mozilla/5.0 (Windows NT 10.0; Win64; x64) AppleWebKit/537.36 (KHTML, like Gecko) draw.io/21.6.8 Chrome/114.0.5735.289 Electron/25.5.0 Safari/537.36" etag="HMCNlfbTDtmPcnv0uRR_" version="21.6.8" type="device">
  <diagram id="Ht1M8jgEwFfnCIfOTk4-" name="Page-1">
    <mxGraphModel dx="2049" dy="2848" grid="1" gridSize="10" guides="1" tooltips="1" connect="1" arrows="1" fold="1" page="1" pageScale="1" pageWidth="1169" pageHeight="827" background="#ffffff" math="0" shadow="1">
      <root>
        <mxCell id="0" />
        <mxCell id="1" parent="0" />
        <mxCell id="0u8f8S5nWa_Rwj-gaqvb-2" value="" style="rounded=1;whiteSpace=wrap;html=1;fillColor=#eb61f5;fontColor=#ffffff;strokeColor=#A50040;glass=0;gradientColor=default;" vertex="1" parent="1">
          <mxGeometry x="430" y="-665" width="130" height="55" as="geometry" />
        </mxCell>
        <mxCell id="Gn1gKcj53Svm0TnLtsEw-9" value="" style="rounded=1;whiteSpace=wrap;html=1;absoluteArcSize=1;arcSize=14;strokeWidth=5;fillColor=none;labelBackgroundColor=none;strokeColor=#2D7600;fontColor=#ffffff;" parent="1" vertex="1">
          <mxGeometry x="960" y="-1000" width="800" height="690" as="geometry" />
        </mxCell>
        <mxCell id="Gn1gKcj53Svm0TnLtsEw-14" value="&lt;h2&gt;&lt;br&gt;&lt;/h2&gt;" style="rounded=1;whiteSpace=wrap;html=1;absoluteArcSize=1;arcSize=14;strokeWidth=2;fillColor=none;labelBackgroundColor=#1D0215;strokeColor=#2D7600;fontColor=#ffffff;labelPosition=center;verticalLabelPosition=middle;align=center;verticalAlign=middle;" parent="1" vertex="1">
          <mxGeometry x="1280" y="-635.5" width="440" height="295" as="geometry" />
        </mxCell>
        <mxCell id="Gn1gKcj53Svm0TnLtsEw-29" style="edgeStyle=orthogonalEdgeStyle;rounded=0;orthogonalLoop=1;jettySize=auto;html=1;strokeColor=#001DBC;fontColor=#095C86;fillColor=#0050ef;shape=flexArrow;" parent="1" source="Gn1gKcj53Svm0TnLtsEw-9" target="Gn1gKcj53Svm0TnLtsEw-15" edge="1">
          <mxGeometry relative="1" as="geometry" />
        </mxCell>
        <mxCell id="Gn1gKcj53Svm0TnLtsEw-26" style="edgeStyle=orthogonalEdgeStyle;rounded=0;orthogonalLoop=1;jettySize=auto;html=1;strokeColor=#001DBC;fontColor=#095C86;fillColor=#0050ef;shape=flexArrow;" parent="1" source="C4TD070byVGFf6gNVCbe-1" target="C4TD070byVGFf6gNVCbe-4" edge="1">
          <mxGeometry relative="1" as="geometry">
            <Array as="points">
              <mxPoint x="1100" y="-858" />
              <mxPoint x="1100" y="-858" />
            </Array>
          </mxGeometry>
        </mxCell>
        <mxCell id="C4TD070byVGFf6gNVCbe-1" value="" style="dashed=0;outlineConnect=0;html=1;align=center;labelPosition=center;verticalLabelPosition=bottom;verticalAlign=top;shape=mxgraph.weblogos.github;labelBackgroundColor=none;fillColor=#F694C1;strokeColor=#AF45ED;fontColor=#095C86;" parent="1" vertex="1">
          <mxGeometry x="813.63" y="-895" width="75" height="75" as="geometry" />
        </mxCell>
        <mxCell id="Gn1gKcj53Svm0TnLtsEw-25" style="edgeStyle=orthogonalEdgeStyle;rounded=0;orthogonalLoop=1;jettySize=auto;html=1;strokeColor=#001DBC;fontColor=#095C86;fillColor=#0050ef;shape=flexArrow;" parent="1" source="C4TD070byVGFf6gNVCbe-2" target="C4TD070byVGFf6gNVCbe-1" edge="1">
          <mxGeometry relative="1" as="geometry" />
        </mxCell>
        <mxCell id="C4TD070byVGFf6gNVCbe-2" value="" style="points=[[0.35,0,0],[0.98,0.51,0],[1,0.71,0],[0.67,1,0],[0,0.795,0],[0,0.65,0]];verticalLabelPosition=bottom;html=1;verticalAlign=top;aspect=fixed;align=center;pointerEvents=1;shape=mxgraph.cisco19.user;strokeColor=#005700;labelBackgroundColor=none;fillColor=#008a00;fontColor=#ffffff;fillStyle=solid;" parent="1" vertex="1">
          <mxGeometry x="540" y="-920" width="125" height="125" as="geometry" />
        </mxCell>
        <mxCell id="Gn1gKcj53Svm0TnLtsEw-54" style="edgeStyle=orthogonalEdgeStyle;rounded=1;orthogonalLoop=1;jettySize=auto;html=1;exitX=0.65;exitY=0.987;exitDx=0;exitDy=0;entryX=0.5;entryY=1;entryDx=0;entryDy=0;strokeColor=#3333FF;fontFamily=Helvetica;fontSize=12;fontColor=#095C86;fillColor=#0050ef;exitPerimeter=0;shape=flexArrow;" parent="1" source="C4TD070byVGFf6gNVCbe-28" target="Gn1gKcj53Svm0TnLtsEw-13" edge="1">
          <mxGeometry relative="1" as="geometry">
            <mxPoint x="798.82" y="-260" as="sourcePoint" />
            <mxPoint x="1449.4699999999996" y="-235.85999999999967" as="targetPoint" />
            <Array as="points">
              <mxPoint x="786" y="-220" />
              <mxPoint x="1425" y="-220" />
            </Array>
          </mxGeometry>
        </mxCell>
        <mxCell id="C4TD070byVGFf6gNVCbe-28" value="" style="shape=image;html=1;verticalAlign=top;verticalLabelPosition=bottom;labelBackgroundColor=none;imageAspect=0;aspect=fixed;image=https://cdn0.iconfinder.com/data/icons/social-media-2104/24/social_media_social_media_logo_docker-128.png;fillColor=#F694C1;strokeColor=#AF45ED;fontColor=#095C86;imageBackground=#0bf427;" parent="1" vertex="1">
          <mxGeometry x="695" y="-518.5" width="140" height="140" as="geometry" />
        </mxCell>
        <mxCell id="C4TD070byVGFf6gNVCbe-74" style="edgeStyle=orthogonalEdgeStyle;rounded=0;orthogonalLoop=1;jettySize=auto;html=1;startArrow=none;startFill=0;endArrow=open;endFill=0;strokeWidth=2;exitX=0.995;exitY=0.63;exitDx=0;exitDy=0;exitPerimeter=0;entryX=0;entryY=0.5;entryDx=0;entryDy=0;labelBackgroundColor=none;fontColor=default;strokeColor=#60E696;" parent="1" edge="1">
          <mxGeometry relative="1" as="geometry">
            <Array as="points" />
            <mxPoint x="1390" y="-500" as="sourcePoint" />
            <mxPoint x="1420" y="-570" as="targetPoint" />
          </mxGeometry>
        </mxCell>
        <mxCell id="C4TD070byVGFf6gNVCbe-75" style="edgeStyle=orthogonalEdgeStyle;rounded=0;orthogonalLoop=1;jettySize=auto;html=1;startArrow=none;startFill=0;endArrow=open;endFill=0;strokeWidth=2;exitX=0.995;exitY=0.63;exitDx=0;exitDy=0;exitPerimeter=0;entryX=0;entryY=0.5;entryDx=0;entryDy=0;labelBackgroundColor=none;fontColor=default;strokeColor=#60E696;" parent="1" edge="1">
          <mxGeometry relative="1" as="geometry">
            <Array as="points" />
            <mxPoint x="1370" y="-560" as="sourcePoint" />
            <mxPoint x="1420" y="-413" as="targetPoint" />
          </mxGeometry>
        </mxCell>
        <mxCell id="C4TD070byVGFf6gNVCbe-76" style="edgeStyle=orthogonalEdgeStyle;rounded=0;orthogonalLoop=1;jettySize=auto;html=1;startArrow=none;startFill=0;endArrow=open;endFill=0;strokeWidth=2;exitX=0.995;exitY=0.63;exitDx=0;exitDy=0;exitPerimeter=0;entryX=0;entryY=0.5;entryDx=0;entryDy=0;labelBackgroundColor=none;fontColor=default;strokeColor=#60E696;" parent="1" edge="1">
          <mxGeometry relative="1" as="geometry">
            <Array as="points" />
            <mxPoint x="1370" y="-404" as="sourcePoint" />
            <mxPoint x="1420" y="-259" as="targetPoint" />
          </mxGeometry>
        </mxCell>
        <mxCell id="Gn1gKcj53Svm0TnLtsEw-8" value="" style="image;sketch=1;aspect=fixed;html=1;points=[];align=center;fontSize=12;image=img/lib/mscae/Kubernetes.svg;labelBackgroundColor=none;fillColor=#F694C1;strokeColor=#AF45ED;fontColor=#095C86;imageBackground=none;curveFitting=1;jiggle=2;imageBorder=none;" parent="1" vertex="1">
          <mxGeometry x="1670" y="-1030" width="62.5" height="60" as="geometry" />
        </mxCell>
        <mxCell id="Gn1gKcj53Svm0TnLtsEw-12" value="" style="rounded=1;whiteSpace=wrap;html=1;absoluteArcSize=1;arcSize=14;strokeWidth=2;fillColor=none;labelBackgroundColor=none;strokeColor=#2D7600;fontColor=#ffffff;" parent="1" vertex="1">
          <mxGeometry x="1512.5" y="-618" width="145" height="258" as="geometry" />
        </mxCell>
        <mxCell id="Gn1gKcj53Svm0TnLtsEw-32" style="edgeStyle=orthogonalEdgeStyle;rounded=1;orthogonalLoop=1;jettySize=auto;html=1;exitX=0.75;exitY=0;exitDx=0;exitDy=0;entryX=0.485;entryY=0.988;entryDx=0;entryDy=0;entryPerimeter=0;strokeColor=#001DBC;fontColor=#095C86;fillColor=#0050ef;shape=flexArrow;endArrow=none;endFill=0;" parent="1" source="Gn1gKcj53Svm0TnLtsEw-12" target="Gn1gKcj53Svm0TnLtsEw-22" edge="1">
          <mxGeometry relative="1" as="geometry">
            <Array as="points">
              <mxPoint x="1621" y="-666" />
              <mxPoint x="1583" y="-666" />
            </Array>
          </mxGeometry>
        </mxCell>
        <mxCell id="Gn1gKcj53Svm0TnLtsEw-13" value="" style="rounded=1;whiteSpace=wrap;html=1;absoluteArcSize=1;arcSize=14;strokeWidth=2;fillColor=none;labelBackgroundColor=none;strokeColor=#2D7600;fontColor=#ffffff;" parent="1" vertex="1">
          <mxGeometry x="1350" y="-618" width="150" height="260" as="geometry" />
        </mxCell>
        <mxCell id="Gn1gKcj53Svm0TnLtsEw-33" style="edgeStyle=orthogonalEdgeStyle;rounded=1;orthogonalLoop=1;jettySize=auto;html=1;exitX=0.75;exitY=0;exitDx=0;exitDy=0;entryX=0.353;entryY=1.014;entryDx=0;entryDy=0;entryPerimeter=0;strokeColor=#3333FF;fontColor=#095C86;fillColor=#0050ef;shape=flexArrow;endArrow=none;shadow=1;endFill=0;" parent="1" source="Gn1gKcj53Svm0TnLtsEw-13" target="Gn1gKcj53Svm0TnLtsEw-22" edge="1">
          <mxGeometry relative="1" as="geometry" />
        </mxCell>
        <mxCell id="Gn1gKcj53Svm0TnLtsEw-15" value="" style="image;aspect=fixed;html=1;points=[];align=center;fontSize=12;image=img/lib/azure2/other/Grafana.svg;labelBackgroundColor=none;fillColor=#F694C1;strokeColor=#AF45ED;fontColor=#095C86;imageBackground=none;" parent="1" vertex="1">
          <mxGeometry x="713.7099999999999" y="-692.8299999999999" width="97.42" height="75.65" as="geometry" />
        </mxCell>
        <mxCell id="Gn1gKcj53Svm0TnLtsEw-20" value="&lt;h2&gt;&lt;font style=&quot;font-size: 27px;&quot;&gt;Ingress&lt;/font&gt;&lt;/h2&gt;" style="verticalLabelPosition=middle;verticalAlign=middle;html=1;shape=mxgraph.basic.rect;fillColor2=none;strokeWidth=1;size=20;indent=5;labelBackgroundColor=none;fillColor=#F694C1;strokeColor=#AF45ED;fontColor=#095C86;labelPosition=center;align=center;" parent="1" vertex="1">
          <mxGeometry x="1500" y="-925" width="170" height="85" as="geometry" />
        </mxCell>
        <mxCell id="Gn1gKcj53Svm0TnLtsEw-27" style="edgeStyle=orthogonalEdgeStyle;rounded=0;orthogonalLoop=1;jettySize=auto;html=1;strokeColor=#001DBC;fontColor=#095C86;fillColor=#0050ef;shape=flexArrow;endArrow=none;endFill=0;" parent="1" source="Gn1gKcj53Svm0TnLtsEw-21" target="Gn1gKcj53Svm0TnLtsEw-23" edge="1">
          <mxGeometry relative="1" as="geometry" />
        </mxCell>
        <mxCell id="Gn1gKcj53Svm0TnLtsEw-30" style="edgeStyle=orthogonalEdgeStyle;rounded=0;orthogonalLoop=1;jettySize=auto;html=1;entryX=0.512;entryY=0.003;entryDx=0;entryDy=0;entryPerimeter=0;strokeColor=none;fontColor=#095C86;fillColor=#F694C1;endArrow=blockThin;endFill=1;" parent="1" source="Gn1gKcj53Svm0TnLtsEw-21" target="Gn1gKcj53Svm0TnLtsEw-22" edge="1">
          <mxGeometry relative="1" as="geometry" />
        </mxCell>
        <mxCell id="Gn1gKcj53Svm0TnLtsEw-21" value="&lt;h2&gt;&lt;font style=&quot;font-size: 27px;&quot;&gt;Ingress&lt;/font&gt;&lt;/h2&gt;" style="verticalLabelPosition=middle;verticalAlign=middle;html=1;shape=mxgraph.basic.rect;fillColor2=none;strokeWidth=1;size=20;indent=5;labelBackgroundColor=none;fillColor=#60a917;strokeColor=#2D7600;fontColor=#ffffff;labelPosition=center;align=center;" parent="1" vertex="1">
          <mxGeometry x="1500" y="-925" width="170" height="85" as="geometry" />
        </mxCell>
        <mxCell id="Gn1gKcj53Svm0TnLtsEw-31" style="edgeStyle=orthogonalEdgeStyle;rounded=0;orthogonalLoop=1;jettySize=auto;html=1;strokeColor=#0000FF;fontColor=#095C86;fillColor=#0050ef;shape=flexArrow;endArrow=none;endFill=0;" parent="1" source="Gn1gKcj53Svm0TnLtsEw-22" target="Gn1gKcj53Svm0TnLtsEw-21" edge="1">
          <mxGeometry relative="1" as="geometry" />
        </mxCell>
        <mxCell id="Gn1gKcj53Svm0TnLtsEw-23" value="" style="dashed=0;outlineConnect=0;html=1;align=center;labelPosition=center;verticalLabelPosition=bottom;verticalAlign=top;shape=mxgraph.weblogos.chrome;strokeColor=#AF45ED;fontColor=#095C86;fillColor=#F694C1;" parent="1" vertex="1">
          <mxGeometry x="1870" y="-920" width="74.8" height="75.4" as="geometry" />
        </mxCell>
        <mxCell id="Gn1gKcj53Svm0TnLtsEw-5" value="" style="sketch=0;html=1;dashed=0;whitespace=wrap;points=[[0.005,0.63,0],[0.1,0.2,0],[0.9,0.2,0],[0.5,0,0],[0.995,0.63,0],[0.72,0.99,0],[0.5,1,0],[0.28,0.99,0]];verticalLabelPosition=bottom;align=center;verticalAlign=top;shape=mxgraph.kubernetes.icon;prIcon=pod;labelBackgroundColor=none;fillColor=#60a917;strokeColor=#2D7600;fontColor=#ffffff;" parent="1" vertex="1">
          <mxGeometry x="1550" y="-613" width="70" height="70" as="geometry" />
        </mxCell>
        <mxCell id="Gn1gKcj53Svm0TnLtsEw-4" value="" style="sketch=0;html=1;dashed=0;whitespace=wrap;points=[[0.005,0.63,0],[0.1,0.2,0],[0.9,0.2,0],[0.5,0,0],[0.995,0.63,0],[0.72,0.99,0],[0.5,1,0],[0.28,0.99,0]];verticalLabelPosition=bottom;align=center;verticalAlign=top;shape=mxgraph.kubernetes.icon;prIcon=pod;labelBackgroundColor=none;fillColor=#60a917;strokeColor=#2D7600;fontColor=#ffffff;" parent="1" vertex="1">
          <mxGeometry x="1550" y="-530" width="70" height="70" as="geometry" />
        </mxCell>
        <mxCell id="Gn1gKcj53Svm0TnLtsEw-16" value="" style="sketch=0;html=1;dashed=0;whitespace=wrap;points=[[0.005,0.63,0],[0.1,0.2,0],[0.9,0.2,0],[0.5,0,0],[0.995,0.63,0],[0.72,0.99,0],[0.5,1,0],[0.28,0.99,0]];verticalLabelPosition=bottom;align=center;verticalAlign=top;shape=mxgraph.kubernetes.icon;prIcon=pod;labelBackgroundColor=none;fillColor=#60a917;strokeColor=#2D7600;fontColor=#ffffff;" parent="1" vertex="1">
          <mxGeometry x="1550" y="-448.5" width="70" height="70" as="geometry" />
        </mxCell>
        <mxCell id="Gn1gKcj53Svm0TnLtsEw-6" value="" style="sketch=0;html=1;dashed=0;whitespace=wrap;points=[[0.005,0.63,0],[0.1,0.2,0],[0.9,0.2,0],[0.5,0,0],[0.995,0.63,0],[0.72,0.99,0],[0.5,1,0],[0.28,0.99,0]];verticalLabelPosition=bottom;align=center;verticalAlign=top;shape=mxgraph.kubernetes.icon;prIcon=pod;labelBackgroundColor=none;fillColor=#60a917;strokeColor=#2D7600;fontColor=#ffffff;" parent="1" vertex="1">
          <mxGeometry x="1390" y="-613" width="70" height="70" as="geometry" />
        </mxCell>
        <mxCell id="Gn1gKcj53Svm0TnLtsEw-11" value="" style="sketch=0;html=1;dashed=0;whitespace=wrap;points=[[0.005,0.63,0],[0.1,0.2,0],[0.9,0.2,0],[0.5,0,0],[0.995,0.63,0],[0.72,0.99,0],[0.5,1,0],[0.28,0.99,0]];verticalLabelPosition=bottom;align=center;verticalAlign=top;shape=mxgraph.kubernetes.icon;prIcon=pod;labelBackgroundColor=none;fillColor=#60a917;strokeColor=#2D7600;fontColor=#ffffff;" parent="1" vertex="1">
          <mxGeometry x="1390" y="-530" width="70" height="70" as="geometry" />
        </mxCell>
        <mxCell id="Gn1gKcj53Svm0TnLtsEw-17" value="" style="sketch=0;html=1;dashed=0;whitespace=wrap;points=[[0.005,0.63,0],[0.1,0.2,0],[0.9,0.2,0],[0.5,0,0],[0.995,0.63,0],[0.72,0.99,0],[0.5,1,0],[0.28,0.99,0]];verticalLabelPosition=bottom;align=center;verticalAlign=top;shape=mxgraph.kubernetes.icon;prIcon=pod;labelBackgroundColor=none;fillColor=#60a917;strokeColor=#2D7600;fontColor=#ffffff;" parent="1" vertex="1">
          <mxGeometry x="1390" y="-448.5" width="70" height="70" as="geometry" />
        </mxCell>
        <mxCell id="Gn1gKcj53Svm0TnLtsEw-42" style="edgeStyle=orthogonalEdgeStyle;rounded=0;orthogonalLoop=1;jettySize=auto;html=1;exitX=0;exitY=0.75;exitDx=0;exitDy=0;strokeColor=#001DBC;fontColor=#095C86;fillColor=#0050ef;shape=flexArrow;" parent="1" source="C4TD070byVGFf6gNVCbe-5" target="C4TD070byVGFf6gNVCbe-28" edge="1">
          <mxGeometry relative="1" as="geometry" />
        </mxCell>
        <mxCell id="C4TD070byVGFf6gNVCbe-5" value="" style="shape=image;html=1;verticalAlign=top;verticalLabelPosition=bottom;labelBackgroundColor=none;imageAspect=0;aspect=fixed;image=https://cdn0.iconfinder.com/data/icons/social-media-2104/24/social_media_social_media_logo_docker-128.png;fillColor=#F694C1;strokeColor=#AF45ED;fontColor=#095C86;imageBackground=#29fa41;imageBorder=none;" parent="1" vertex="1">
          <mxGeometry x="1010" y="-553" width="140" height="140" as="geometry" />
        </mxCell>
        <mxCell id="Gn1gKcj53Svm0TnLtsEw-41" style="edgeStyle=orthogonalEdgeStyle;orthogonalLoop=1;jettySize=auto;html=1;exitX=0.25;exitY=1;exitDx=0;exitDy=0;strokeColor=#001DBC;fontColor=#095C86;fillColor=#0050ef;curved=1;shape=flexArrow;" parent="1" source="C4TD070byVGFf6gNVCbe-4" target="C4TD070byVGFf6gNVCbe-5" edge="1">
          <mxGeometry relative="1" as="geometry" />
        </mxCell>
        <mxCell id="Gn1gKcj53Svm0TnLtsEw-43" style="edgeStyle=orthogonalEdgeStyle;rounded=1;orthogonalLoop=1;jettySize=auto;html=1;exitX=1;exitY=0.25;exitDx=0;exitDy=0;strokeColor=#001DBC;fontFamily=Helvetica;fontSize=12;fontColor=#095C86;fillColor=#0050ef;shape=flexArrow;" parent="1" source="C4TD070byVGFf6gNVCbe-4" target="Gn1gKcj53Svm0TnLtsEw-22" edge="1">
          <mxGeometry relative="1" as="geometry" />
        </mxCell>
        <mxCell id="C4TD070byVGFf6gNVCbe-4" value="" style="shape=image;verticalLabelPosition=bottom;labelBackgroundColor=none;verticalAlign=top;aspect=fixed;imageAspect=0;image=data:image/png,iVBORw0KGgoAAAANSUhEUgAAAL8AAAEICAMAAAA5jNVNAAABKVBMVEX////w1rfTODMjHyAzUGEAAAD35M1Jcovc2dhta22BsMTvPToAHR40UmT53r4iHyDYOTQiGxri394fHyDRODMeGhvl4uEWHh8AAAwaFRb1PjsVDxEbGBv/7dUAAA0VHh9FbIMMAAURDxUNHh8gFhPz3cLy8vLCNTEkIyYMChJCP0AuQk8qNj+fnp4ZFhq0My+OLSqqMS7Wv6TPz8+aLywmKS62tbVlY2PmzbCejXqsmYTJs5ozMDG4pI2FhIQsICE4ISIWAAB2aVy6ublzKSdQJCR8e3tJR0dXVVVcUkngz7p+cGKmpaVLQjyNfm1GIyNiJiaCKymtoJDLu6lpYFg7NTGekoSUk5NMJCNyk6NjfIk8P0R8o7VdJiW8rp1UTUhBUlpRX2hRaXVUu24xAAAgAElEQVR4nM1daUMaSRNWxzaw4nA5yGRQwyECIiYSDhU1EYMYjyQbDXsl2ez//xFvV3X3TM/JjGLy1pfNyvVUd91V3TM395RUzbS7uyejXm9MqdcbnUy6w1j1SX9yVpQbTsYGIaRoGLquIem6YRThT+OTYe5X4wui6nCkEWLoig/plDEj3v0/3YjumKLT/LCbRHm4uP6/Y6EdJ8R73ZMe+0BIvP2rEUuUOTFc4AulPBV5Uq8T/E+p5dyFxvBXw+Y0vCCGA3yJkO+33z6/X0J6//7z77d3BZIvydKlkcb/wx7sGsQh81qdXH1eWl9fkmid0vtvtzck30pKHMR/tR7skqJTuPOFL0s27DIXS9/O6sQSJYP8UiEaaoSvpImoXvJFz3mgLJC6+QFy8svQxy6Y5GhF0igKuZ+CnrPw+725CeTi16CvxtHkaAYZ77ZzbdiIArkKgZ4J0udLwYGh/AolmKDN0clg0s5lMrlrugHk5r0/+i2JGAvv70iBq3HsZ6O/RrXVybiby8RiueseUVr5373QU7jzXkS5WP98QzgDP9eQtgcE0feGgD6TO6GSRO5couODXOJh/Xe+BT/TDFV7oLYaGQ9zMYq+vTsoKq36Nwf6adgZqf370k9m4BoFn3p/hn4ypsaTfLcvfjjwjC7zP5OB6gUTnQlKTvukN6ZGiHyxoY8AHrbgjDPwM3SgjTaTjNuAPrbbi1/oSqH+ef3B6IGBq42fxcCEoLXYRdEZxntxuvql+631h0mOtQN1xsBT52YjgG8MYPFjsZNePN7Tlfr3B8q9zMAlKrFmPK0jiwP84jiGkh8HGij1u/VHiI5J92hG9cZTwj8B+CSOstPtAfyxLsN/4OIj9UsYVRvxp4PfRfgjhL+L8ONa6XI28OfVI+aJyfVTwc9J8CcMfsO4f7Tomwx84Qw8VSjU0GF7Zfg9vb41A9EHot+zfsd0uPY08EF69IuMBD9eI5bdfyx6oAEmE8WnyWd0+uVGG+Bfc/iD+tX6TIRHfMl78nReYEhAtzI01myziuZ4oLUCZH9q6OlcfcjvvyED+vgJ8NMwQbugeUo3buhY0NQUK9x3Yt2KtCdLmE9e3d1d/f5deyIVrtKVKXa7I82qUmkDH+FfEusZTilAdb+QfKnVKvGkXp+9E0DbbxR5lUo3DPovzRP+FgP/+cvt7bctNdTyr98RewGGzDqMmFg/QNN1fTyajAyFfPOBv770pUXqpVKeHIRgYInmYHb4SnEyU/QZzSxRGeSCputUD2JEMZj5sYk5wv+9XhcLeTudgaX1e61Vz+c3SgVzjZRZwm+b5UHDOGnnMPbM5C407X7dufwoPLI0kH4I+SHk7vBo//jgkpTEx2aYCWQEHJ2cxNB/ZaA3dEGTRk/4PJ/VWpQK+aOp+Lfm7/dV2CZV7d/ykpAxQx+m89VnORfloHvS69G8i+J/75AedKKAQKuT+7urq7t7MhW+jdQ+S4Y1bWbwR9zm0IQXcy4KHr3vmOL/7F7+e4C/MTjsq0jR4AMHt2SmLiAnCkzdHCQtIx47CPyO5V+HRFDLHzwAuMnAISZJswqj2fJrxhBkZ2KiF/htP7209Jn+dkHZfzh6YOA2P7sYospDKgqfZowSfMT/3mE712kEWVCmm5wpDNxQQ0pmg7/LpBECt6GMnuF3ui4afyXrj4U/Pw+p2IwUAIpTdDNzLviAv+7Av37XUsjxo4QHCTZgRgrAln8Yi7Ud8Kn91Bp2qFvrJaV193j4VIXrijGaBXxsStC4OZYZOeDHG1rrzIGV5h/5x0sPpT5RtJlUUqApoRiTjJlzWTRQ6s7orE9cf3oYqffabBQYrScYHxf8uKK4YgNViehuffFftWaTRaL6Gl7LH9c9wPZnoLyInyrATEI47M81chkX+niPhp9hwR6Hxn2wz/5xlJ+NAcJSfy/nMj5gPltXIfGrV2EZUA+4+donMwlB0fsao5yH+DS0+mFo/Ddh3/m7yBcIXbZZ4T/JnbjlZ6Dk90Nh2oLsPNxbIX5iCZtan4kBZebzJOeGH68p+XDJ+RKgcosajZMdTG1hBWuDvUoNqPFo+FgvB/PvFp+4poURCl6gIHnXKxS/IzfGugV3KhBBPNoBxFnsaUw8rH9cd3lff/jrd3mXX1MPNuwLwN55VWrhq5eFRxdRxrzoQHN2N/6eXgrhakWB6BtpuV47rNtjjSUuargB6lnrsfgvxESVN36tPt0omsX1da3uKqTs50vy3/h715VCQWUOuLj7GPgNcyDMGHma/zCVBRP/lzpxJWV5W7DH37t1UIcNUG9LNG55BAMMfjKL/stD/in+EDbRrE8vlbRW384AFfGSbJZ4KaxPkiXQDijCPJwBJjzJtT8oA9o491D81g4cbGgl+w5gjOP+Dir5lC31oM7yvofBHyP8bGL1dRnjH4q3MajVBo2xpb8h5Ac52ML5GXWguTjOKwXLBLFqS//odkBh7wNzyED3IfB7RQ7/+V6C/qMWu9A1Niem6Q2+F3oI/ZXpyIYWEV+VFNOuqod39618nuRBbupnAv+DolDmtgD+81XArxSl8UhNv0D8SilEaXa+L0pYKqYk9g3oQ5rO/6Qq1mRoS+mrxxuiEho5j79G+EkKf3l5O6G4SBsA/kHrcip+9ZIol7eHR/3+/vFNy5XwqGclpcCDcDD4jJL5G2qWAD82tLViRDfQ5vC3KfznnzYFaBwCzhdMBi60+vT1J0mlUKrn6Qexs+IsRvfzVFZuRcSM393KtzCspeKWfLMGf9EHkeDzemFiD+CL5S+Qmy+f379//+0SX9UaqMDTDZC9L1Fy7hiNIShTRyzi3L+kfGpnx0zgKP7yq6/IgBGpFMd6sInXFP7y8lqWyeD393wWeP0zLqROlbg2PVenMZqkOfUb9xuoUiii4EWtT9+smyL+1Bv8fRKhG9NDy1k+B/jPwXpSUZKHq9axRwsb0AijAIcDUi8VCoVWqe4RQ2OeZaqAjRj+1Ww2mhFiurv2Dlf/+Qf2adtgHmtW6eDB6tPgg9nZP7i6u7y8uzrse3GrHlAVKHlEskcbSnkvldpOoBKHDeVYqyWrLCOlUPrZ6q8vff7MZlPXb2D2sBfWAzPH5NsJUC/BLrklkdqfxN7CQuoVYtBDThij8CcTC2z590B8Ct8R9RWYnxvcCWiSa2MwQGET4EBK0t90F00B//YCZeC8HF4FRuh3E68Q/vLzl2A8oUe0tP49z8zQmUrT2QIoQENTSmELEIEEKuDKpcH/JlYXgAEuxCHcGLP8m+cM/vLzj9R8tWC8CtvjzIZQnd2C2BbiicJ0BQ5B2G+h0an9jwf1ZHkBabWcRJ8zHT/GONnTZUHAeR561Osbd0cHjIE8dTfCt3sajgcwcLsB3+X4WymZTSF+rgLTW9onTHpW+fKnUqcUP7ZIP5+pkFDUSV5DH8qcWImEi0CnMwDDhy1bcEfzr+wbhn8h9RGDAJIJhh9DVOVPHP7yaiqb5DMa72lCpGj5w/l9ivpWVQeERoqDW0+L+CAaFBzeWb1rZd9x/AsLShZ9TjD+BpMeE/4C4OfWB2JFqDeoR9ShqvP7R0f7849oMbqo39KYbpn4b7S1c4GfS1BwMsMaXab0wMeo/BTuOP6jPAaPdF1CTAREp32wbyUrwFALyuYnc/1THzEQCiwIFW22J8Utl4brvwX+kCXb+yRk3hWN2PRky1JiopRfm/gXVtfABgW1lFB5k5vLFvyF1FeKX1lnIw7H+QILEy9noLUes2Us4SUip9vH8MfEn2KRmH9Lg7V5hedaZp7j05pijmgckYGI08PVYoPIOTOEDEC6siHwC/drMvCBVUL88GOfKPvGEn7BNIw4wI/1iUiUDh4t/+6hp3lWsbKySbobiZSMfy8RFIiypAVTLiE9lOAzJYje4BvNauXjzY43fupgzI4OzSZN8y+rsF8cF4flX/sqSw98ZpM6gPt1nNFQ72bjbOdFTciF/7JglQTU+0L2ow3/wnbABuRsttPi+WsW4zfUtmNllvjdCiwXI+bn80nJfDIw57gBnrkkSv/aR7v0cAUoXa1vsfWZUWvx4LOX9kL9QRuIn3CYH2ZDMZXxikOrtuVftT4Ce5Yk/Odm5LbU0q1bdvq3pRL9JZGHYfS8bYcvNsDDBE3k5bd95F0WN2A2yBntk+/OKkT/Cub2Si0ziaGbkVxzLL+pAW4fIMedqVUZ/6syZjCPnOy30fGGve2t7p8B+gK5siybWtOk6M1ugtxtVYx8sn+4l59+JEllTrt/5Gy/A7+Udqrq0SVpUStHbuTiNE3J1j658IsNcOLHwBPrVbLyMvwvYQPqM8kTOUEdd5+n9Ee3ClT0tPzAyn9VJv4u9RXi7CpJY80hq3gtP/0Iht72MWB1/ugxIVA9mczf3R4cXF1u5OHMTovcS+j7Vxjk8uTXAQbF2ZkHnID2ll96Lb8VeksMqIclMni4SkPVXCmUKEG9s7WRvzuS0RMQrrri8L721bQnYkx7U07bKT7CapD5u3nTtdP9yoccjfeifqlVKGhQktsgpbNjSWvnb/N1iFKoiFnJiw0MlpPtGoxFh+xX7+WntIo9MLpQtyi1RzAdXLp7BP75/cvLm5vvl1cHx/tSDqeqB616EjwwRHJe4r8gNNjWmMfQh2uv10dECU8pEeX7d6Zvpa1I53XU22Nb1OdRkVPnD5Q6L6arJcVT/BdMDZaDIIIVt2W/5YfQtcyq0EqyUMBSTP29VwAfQH0QlL5fDRF29aoOdW1WkKHik/3ggwXzGFmAUHzWzn2XH3dAWVMkIu/XPSMwFy3xliiUqFobpHZ3cHzUN1ef70D/6PCswKpjGlbSIRJyBm8mrToFaCSJj/eeUQYWPiayJnx+amc6filOVg+wxoatmNL9zeXlGdIltcMkXzfvgWA+LK9g6dYbyleHABnTxId97NWbRJbfWkKWliLgFzJynDevDNHA+CDlb9W+2aIp5NGQQuqVVPywcAEya3FYtOKhm9/y4+dSrz4mymsS/ukKsMXepGLgqvYvieP+HGrUriz8JT71rQ40H+uJhAKk3Qv8u2D9y5i2Byw/42BhDxJ6VpAOj/+Y8IIFhDr1gh3/HcefbJEz/qkjFB9fMCyRN/sZOB/JnFcwfPwsmt+816kjT2KFI1IQAbPaP7ghG6WCeX0OFLAJ1Ys6uRPhm/q9ECA+woWZVxWg83ozVXw44eaVbtc9FMAru8H3UNuTNwNOVe0f314qJJ/fqFPKU87Ixv2Z1FuCOpZX7Gnix0KEqGSh9dz8FEJ82IehIq3deOBXrzwY2BLG0zY7A2Zz/+j48IDSMft/yQvTLN6detkwbCatM7Yo/sx6hoDPMwgvBVYPvKbhGIvq7cbGketV754YLL9H6iJjeCcpQM8S/xDiw62XpwLsBxy1U29aoQ7i8ZMXAdq74FAArLqdhhUfHj+1+Klf+y97zfII6pPkxv3x9II79RLTlp8nAcwDVK3gIRR8br1KXgpwW6/54zok1D0pLIINYgBuoQqU/gVuRFgdCNW3jKMCYcRHCBDWRJ0bQGM0/6MXeL+GVsrXYRplX1b1ft/6P0xtNv19F8dwiqVcS323Q4sPJSjEewvQbYn494PVG9b+K5TqGziOAgnYBl5vZ+GHTmoyO3UNmRGpmsHblNjH/uFPqMGeIVBLCyqt34gjqXaSFBsiB1vXwgcCa0tDCAeVh2Q5vPgs8BTU0wKpx0TT/PHTvNMV/9Dc3SptqFd1MCZTV5IpMJ4OQO/7Lrz6LvCEnnf1lpwIS62AmWiIf2jwwAZqNJxI0c4kv4AdpM2X0yUBjSDkMJb5CS3+XPx4DOcQIPW+UA8aiobg4e5eqec3Cvc3Z7e29Hd+HmcvphkfJDRAPR48o/mJgB/rwCUvDabGpK7lg6f6HMmX9MIV6odP3mtfwdMkmydg5hOih9Div8DqwEnvJAa6iAFGKIgvfntLUOhmAmARxNxcl5nPqPhhrEYEoU4Yx+RhBwj74uB4wrtwYgMgDOiuwaOfKOLDHaBPFgmJ7kMYuBeJTTI4+kH8LI3KscphIor3wo9vy1mAEwgc3o0uQjdi+YGBaTvAHUBsLq7D259HsJ7waSZ+PiYIrOhGqFsTpE/wG+zSac7AFBfGg5g2Rs/JZDTxT22zqVI22OTZiL6rK/kIp1DVY3bvQ7q5WOE6EKzEvKsynBtrPHkM731Tn8xKkGcUxxjIK6X7kGfIoS6BX5fuPHu2whkofwzMAHAur9jF8CH74Xn44Cf1ShHzxHBHhl8hCO7T00JlLKp6wOtCleazZxYDmx9WA0ChAtIAYsDDh5D4U3sfpDIcjG36SBC7AyF/M3UL1OMBj+oqi8+QXnAG1pRtf1QM/+5cTWGV81D4U6tWEZFrGvGxQZiwaNCSC5rQUtXj+zwfL06/ePbMzkC27G9HWQC0O4eMfnwexvyA4IsibkVZ5PtM/HfgSIE+AfGdMVPnDwYCvVJb3FlxMhBgRxn+iYl/uvqmXp2WedWp0lmxfqV+/9l1hYvAdwWtghK5O3KnjKp6dJa3LiBWaul0RUiQxIBfLBoVf2r7nRCdSpPvNN8Bjdx9Xl93ZgL9o+PD46PjS0DYIgMp74V/9A/PSnl3LuBiQEn4pJICv5D/KegXzl3oJVPRIvdf3q+vSyWoo+8kn6/XN0TCpZVI6+6WMnRE2YLqW90NHr/9hZMBHzsq5J/bn2BnkXq9tikkx0JPaUf8CsWXv6PRPL+x5ZgU3Ngw74WqoXVHkXUrfXKNnTOomQykBQNfvcAJ/Nz+B/uKD1zw08rKMzs1+a/Ajf/YmtgYfL+7ui153JbvpGShtLFxyt64lsh+PP8ATba0qcUvaumAHRD2/4L534BiqSQ6O89c1GHw27s6IQbeqlZotSCUSZYTifKanQ+rfdGqE+Py4Gj/BgdOEx+3n1PCLmFzcVFsQVPEEm4lNv1vT8Pqm3+t/VVWiE7zhRv+sxcMf3VuLtOdjMYNHR5wAZjWXq1uv/5YTmxa7u7+CmvOG3lyenYI+nwEvYBk4h2f2sGzHskViwEeDCXdGZkZ/2D8WX7uh546LC46aafoIHr6Y/CqfGNnFW7hTiZSz58v0zVdfXma2OS7UDhW948PD3FuV0UPTV/Y3Nx7LuZ9l+mPpRcpmTLEGHC38jj+toj//RZ/bU0svg96Sp003sdqHe+gOSmfRVhGFj6Vefc1f7kv5bxwS1Qy8XHZRI/T+ukd/NIXMgPucqhZAJqw/MsTfeo8aPFfLHJa2UnDbXaTTI6zQL+TzyJwFpah9Yc7QF0Zz98x4F8r7/GBNYpgdXUBBKi5IjOAIuSBn1Wgc+x0vlfFghpNZdN/8VcWLVpZBDNUVCbtDOWhSm2aNQIuWNjmcV9rg9ycXd1eXVHRz4rFNwemwKp0+FfzJWMOyoX/nOe/Q1Z/cL2eev1GtNwrrsV/IaNnHFAh0gzSu47hrXZiEE3mYO+0zLRRa0HhE8y2GBS31JMa6o755bgFsLnuXqRZf+DlZ+fMEo11BPqO0+y40DMhAnOtF8nFiKoUtqPYqq5SWkghBy9F+Jctg2XFtM8xrfkmq9Ssr1/h+N0FUTzVBvUfXn9zvP7VDJNdNv+FB3iJA7oLBhslsn/lKmXhOVUoYCHx7tXeJ7rS0LSyDy1ga11anhXmId2t+JTZACBu/Ui9EWFyOu1YfK+lN3+Mc6Cwgp7jF1dxD5a3P60lqLNapg4ouXa+sL0NdtaUHxRr22+86MBIvPccIs5wQMnR3mxl9XEPxfUUHAcHnbQPfpQhKkSvyqxaA1DXEonEm/NVCT+YRfuvgPi7Agip/hzH9p1tYlJMOZjRbDj0XIo6aR/81BUsb5+XcdKCQaByC3+U5AcMqO13fMTfqv+jAyjLAsYPzNplJxx6xkHNE//y3vkpFf8kTJmmWASTcIg/4q/ZTDPF7xU+nPPy2xw3oDKHDD/UMqYrrScDTWXzpcf6p1b3Pr2h+lt+DQIDUBPouCR08MfOiv27PKy/mIAAZ5lzGSA2H9R8wNKbawb20/2jGEycrzFxTv2RpV46ZV9aN/6adzsJAnrtQhp/kN7CTgxbmVA09Isgs9AQcf/oagp0OJtV6KrjmcxEyul3aFjQtC1X2rMfsGeaHzF+Im8iClfaNPyR8a+kAypKqXIye/r1KwaGCWfZmNp/Hr+ZS6Fk/3Dv5Eup/84U2H3QJx3G5nvj7ygJf/wwj5+lJk7X6LZ/er2dAhIvriXTtm9qerbDePU/J8+fuBTADHui42+mE6t+k4xouRWtqPUuiJZdKyfW/jh/+WpvewHYcIl/xzO4TGHeXOT5BiqAPKwIqkWp8wgF8DKg+NXnCXhsHBnsZnK59gUeOMuubZbLifLm6Zs/lCTNf+VvSnt2U9FCmhdc32tOBWACJDQ4Ov4VHMX3Kim9KyvGuN0dsguM8ZE9IlLRUKps4gPi7zEHx8TfvBvOpQBcgEwNjo6/CQmM2+tsn64pWiODFxgjZdo9Atv/tvL3v/9qbyH2kOUHxN+jBsoHKMUhjLbLA7A3mBocWQGYADnxp/YglzfwCmBY/CqwkYu1a1rtz9+A/vz7LRZQLPw1xeMMycICpIWabuarOD6clfEzJRMaHF2AFtPZN86aQOo1vwcBb9Fl6TJyYGh//8bpLwcDaY/YTUz/WAc52QSWbZ+wZJBuPlgBqAW1dx9SqY9UKCsVmFvj8Nuj9hzdgxxJm/h/+xMYML+Fir/HEDoPfqwnJXXdAoRvUSoPV4C0Xe9Se6ebip7+E/Dh8zMgcCFwkKuaIel/f5MZMD0YXQWP2I1N78lHYNCCJpMyfnZUUpQdoivAYjpZto4ep7ah7/EWYP6oMAmCwFHD09RVov+w8P/WTFsanPaM3VB8bGfAxi4BYgNOIoiLjp9qnkj6UqlXX2nUqVWYktJ8SWvk4ATdgGhVxF/5T15/a/lBfNyxG3e+8oO2mADJmsL620KAHqAAKEBAe58UKAW8/dsSEIVQ70V/lh0DzNnwd9Jm/IbO1y0+7C4I2wkqJkBl+V3bcgwxFb/HBqWVxOtXr2nKAjXc5FsLIpUgTclYRxgzpPKX+eJflbT8FR5nGPj0uf3pEphE2vaKCZCwQNPw77j+AotHwwJ+edDbPyUJr8BFFBmz3BiT8Ves5Qfn6xW7fXAdHxEHeGxJAPpoIUDBCrDSrDTd7xD9Byd8usZU/WIZ67etl39UrOzRJ3ZDyyI5L0aa5tRgLkAvwuBXtKZLxLAqCi0PJ3xU4eLErPdS/P/wF/55K0f/aa8TYMyyuy4SwSlKuwZjDMFjoCkKkKaxqotFqAalOztJ5e1fdvigwlQDcsyDUTtq4v9bsp3Av8cRGH4C2HmXET/+K20XjyE6IfDvAH6PPVqBglBa8q7SBpDrGJV8QjLU+L0VgvVWUl5v8WF1Z48DwOz0u80Hw7lTIUBB8GGlmn5CRqXnHxd+2IBGptqlHmwIW8//rKRlNfIUH5yd9ToBn2FnwOQsAF0At6CBdUO6xk3vTaKLKAcH1gak4T74apIMaPhe5Bv0X0Uu3Ta9xIedhfW8xQV9sG0DUIO5AgQqMMW/44kfQDiVl0sKlQFqQsEIjYr/eijvStJTfLA06PmQy7Z7A9DS1qYrgC9+sKEVD/i//XYKQsB8WI/7tr9tRnjHS3z48ns/3Aw6qbYNYJ6OKcA0/Ite70ETmv7XLf/oA4wRBhFzDWaf/pSVlxUe3NaHSb/3fZptlwnCNJIrQBD+RdYfc+PH7nb67Q8PBqgPM2K4AUUmYZo9c097iA8zPr7PFbpADZACVmzScAUIxl/xxL/IXJhSkaIfQTQKKu5CEFFl5l/2vGzn3LEPt/1+15myy6MkJ8xiiM50A5REIfPWX8ZBxenD/qEmdABhNA3fXNKDZU9X7MMC54BLyDCPlLUGLVBlOv6OD34RRHhx8C/1Yd0YNBDBfHZsph83zi4+EIkHXj8zJ65AKVt8o7marsD++HlrlXNgkyLqw+CRJnMT8gNMv2LfN1tPC7C//nR+Gnz9z5y4gKlsMo4xEEsiA/E3ffHbOXj7Q7JFEERQH9Yr/oWm31l1FtE8TT5fvkskypssFNfjQdc4GjgOYnKOCjBdgQPxMw74WG3l7b+mO6MmVO/lMjpV307aXvWEpkt5FcGvvnyT2MxKYyxG0COah0yFRSLDplQ6j8Rv2wPt7UAoAiSS7SFV3x8Ve9UQtBdiYcycpfkVTkF3qGEUwXi3PMA0BZ6K38ZBmooRbsIPnW7AbvEHtT329Ae19xWMAEizpgacU2LV0gAVZnG02TLAVgxT4Mfhl6UIXNrpf/+ACVX0gf4XlVnX8idPUy+zZQu9TuKZuWobn3ke+GS8a5sNQpNbmabAofAjB0kzqay8Hfw3QCwDh+dFp5H9oJQtoTfImC95GzU0SILQCwsvxhR40Q//Dis8BNhPBweiv42aIGb/lM6KRYv8HZbK6oSMrNtCqnC8MOgiTS5BSXb9GyRhzAB5eacaW7mV2nT8FsCmc7aPKu9Os9nsACnptO01Cr5ntzfsCcQBl/kyG7TGVAA9sJ8BguykA1vgHf8IwBQeUFNgrDnwdzoO0OYOucADTYpTvBi7QbaMkTTOeaR9DSj87s6KLX4WYoCIAWxakCdGf9LI4NrLV6GABF5GLK6vTtkMkJdQYIBfq/FC6SLCpqiTHHBUyDKRCz8ZgVQ98MFCVXF9eIpFEP4GdKXDf61CoTdrD1lmb9IcJiY2vDbZgUQl+CJTpgI0EEphuYhFQB74V1ZMXfQCrumGUSRuKhYN8TxMO6GPAielDdrWFWOxSYPY2EEBCnyyFnvUbDa7KkVA7pk3uuKea6cz1EajN5rsdoftdiaXqzLK5WLt4fXuaDygbKClTlegKcOe+z6qgljTGEAb50SBd0jf6XgGBlRrpzyYJM6evnC64GtAqZtxLTkDXuudXA9j0277phIB+UZzhRWY4Bf/KbsAAAfNSURBVKt4RzeGTx7kxfUG0cnY8V3dqQIkHt6RfWNFcA78OxWmpJUKsqFT5Mb45Lod8olpVXgMKbGmRJqKOVAClQRMbUDUDaK4TGh1ugBRI6SzHYCdrbnwr7xYaTZ3dhaZraxRg3zdjvSMhCo08ST8aIr5RABdXwML7G1CBl7Zbk2b/nDRKkYaTDAr7vW3z4RWIj8jBPBndAs/HoUQVh0e/AXFleuh9yLDmfepDxetWk/s8HQA8nRZxYj6sGfAnxto9vMW4la0sU5zezPmqbYp2RjBoeGpj6bKmQ9O8HZgKy9MFqI/aRLXf6yb+FGBRWpF8QkFrp4IC2z0dm0TA9MfaGAywCJoD/8F8g9cdCI/Khbxxy38EPSbRpEqBk2N8Z8Xg0bjojc62e22rZZTBnCF2HLBQNoXP+eiE+ZqeDf+kcGLG9S3dBRpJoBQ9QywwBmwvGGeLVc1mI9ZDM7AVpqRH5SG+E+M9OILNh64IhvQuYZmSB0+12czODIT5ierA3intwO244/4hBnEPzFszWrTgFIDI6q7XpSLdafGoCZBPsbaqAH4d9JRn1GE+HeLVskf8QtIu0V97I8/E4uFx4+x3BT89MeDqjK++K+LVurL8LfFj/IZA7rY3cnJ6GTSldwjtbzgwcLhR1vVmYo/6oPeEH9Xwo8OWLhBur4atuirDSlsjXer/KM5aFaEUzlWlZ6CfzEd1QEw/ESq/AB+cashjXCEA5ir5jIx8GDtISVgIEfxw7Hxou+Xy4T5cmVaBSgd1QFg/ENl05rWwChQ5LUE2ks+8hFj66+Fex5MNRT+mhbxSZlu/Jg6iNYWOjBv/Bh5UPkPu+Oh8HeiOgDE35bxYy4kvkWnDkxMKWZo+mMmQLj8aH/CPluXiAAosII49dEgU/FjKo1RfTWTqYEDi/lRphvh4epGKPxRDWiVL2PHgb8N6gmRqXHijz+HGWTIX9IEfn/4DzCgbvxNTIEnDGBD0+P++EF8Qhs8KDiGwB/RgCL+jGGdFuH4RxmBv5fLCAL5h/8Tyw/5S2iHD64OAujg8mw6pDmz4c9peFxWiCAaUIFfa3S73etd6nx744vBAB47ORky6YeQIHzAOwiDfyWsO7Tjp99t4scAQrvIxTK52PUARuyxUmQYus4qMkpv0gb4bSgehU9YAX96Kv5axAiU4b/QrM4Rw1/Lta97pGiryhRJY7Q7jOVQgHJDmBXzmYHwIpyLqDSDT/GAA4gUgTL5H+sO/HAIFOtamq7TpTdQpK5jTPhBE9ojzKki/FiPl8k6XlOSJv5mxGe1M/xx3TYuaS04GYzjo5OTEZX02mTYjuUgCOrujhoE61IkwnPVT8RDgNNNfw6o9EZ8VjviHxnSzA/HXyS9a9MXwqMQDSsCZTUdhcSDvtlBQ+sBlAEc7EQ1QIjfTMCgDsZ/ZNemR5r5CGVzd0jEJ+rKz5/05yAd2iFK+DGBwW5HkzfGdMfS5sYGLjyjopUFhKc2kdYgTSMWTw7SUyuSHvghAGXtDvH9Hm6wGhteUzcwollY6PKq/QviRHp6blrZ8eAADGgkAxTjAZyDHvKs3xAcTBRpE+geuKSIGtBoEZAXfiraEdPo8NSOyxy49IAa0MCmoDd+9qxPRUdDr+jjJ0MPVD2R/WK6YxMjakCD2vpuYnEOtOKI0ZvgNYDRH7MckaoTGwfpJjQATAMaLYJg+Guadj0Ev4qyH9GwPIDsHFAWOk3WxFgBAxRF93I8zlTYP8ahCyKPJTsH0HisUSZ26PpHUmAG+0KvZbgn/inrj7RbJM72J1rwSAqc4wEcxw8D/D8L/9xcd0Bcfl0Jn5ICsQCOBocsq4Io5WlsvzdRc2qeHbWcTwTvyANQQ2f4M8UoOcksqNodE2LYeIjifQT+IsMPChwxgp0BtSdjEd2CPEUBUOVqS/j60zA9YgQ7I6rGoLIagzQhTEvHJIGf1RQy0FP8OQbUB074lgL/AFt10o6ZodDPVGAXhetpWuTAn5s21fPUBB4oShubJ2BkyPGP9YgR4IwJq0oRNDDD8Xe5AgP/0VK42RKbCgn//hxzu6JOjj3RaCncjAl7UuEVgHfwirsZyQA9aQIwhSCEiaAAHL+o82NVM2oXcKaUCTEWJRHv4Jl1/naUoviTkBa6KYvEFp1XzBl+Z/Xk5xLG8OElmIWdok+R+fX4I0pABhed9SlywxOoc/9a+UEXHL6PihkM0S6G15P4gLDB+J8aQbsIStXhiwg5VkDRiDnOqv3KAG6ODWaGN4FogGpSJqr90vhtjrngCCFEjA9iMDLI4KnrP1OpEcmC8gQYmy6ExH/x4gPtRspiMzxq0wajbrTu/VMRDKuED4IzPGr7pWG/nQbhy2gsAe5GmMT4CbQbNohk8wMsavilUZudQICM6UGAQI8z0L+gbuJPYIGMwUngMHrOBJ/JxegHfmna6CAcrQZ72DjxHh6v8nANsHdPLqCSGqns8sRUFR0htOkXI/tJjCrGarlMjMU8LOiJMIvxE2gsVxQ1dhKmdtGD7iH0EEfx3sXAIEQ+wvOLozY7DV0tRXjar24I0nXNUXyP1E1/ehrwg0UhSSdRjz48NeWux0SIdjCBjvT+PyIHB4FpKbLGv01gNA0HY9iZCv1iFHUW4KdSFUZecP6rMYDpzlpt0Bj34jAHMPSdro1G/wPFj/5q024wdgAAAABJRU5ErkJggg==;fillColor=#F694C1;strokeColor=#AF45ED;fontColor=#095C86;imageBorder=#33FF33;" parent="1" vertex="1">
          <mxGeometry x="1150" y="-880" width="130.24" height="180" as="geometry" />
        </mxCell>
        <mxCell id="Gn1gKcj53Svm0TnLtsEw-22" value="&lt;h2&gt;&lt;font style=&quot;font-size: 27px;&quot;&gt;Service&lt;/font&gt;&lt;/h2&gt;" style="verticalLabelPosition=middle;verticalAlign=middle;html=1;shape=mxgraph.basic.rect;fillColor2=none;strokeWidth=1;size=20;indent=100;labelBackgroundColor=none;fillColor=#60a917;strokeColor=#2D7600;fontColor=#ffffff;labelPosition=center;align=center;" parent="1" vertex="1">
          <mxGeometry x="1500" y="-791.15" width="170" height="80" as="geometry" />
        </mxCell>
        <mxCell id="Gn1gKcj53Svm0TnLtsEw-45" style="edgeStyle=orthogonalEdgeStyle;rounded=0;orthogonalLoop=1;jettySize=auto;html=1;exitX=0.75;exitY=0;exitDx=0;exitDy=0;entryX=0.794;entryY=-0.02;entryDx=0;entryDy=0;entryPerimeter=0;strokeColor=#60E696;fontFamily=Helvetica;fontSize=12;fontColor=#095C86;fillColor=#F694C1;" parent="1" source="Gn1gKcj53Svm0TnLtsEw-14" target="Gn1gKcj53Svm0TnLtsEw-14" edge="1">
          <mxGeometry relative="1" as="geometry" />
        </mxCell>
        <mxCell id="Gn1gKcj53Svm0TnLtsEw-46" value="&lt;font color=&quot;#cc1d28&quot; style=&quot;font-size: 28px;&quot;&gt;&lt;b style=&quot;&quot;&gt;Grafana&lt;/b&gt;&lt;/font&gt;" style="text;strokeColor=none;align=center;fillColor=none;html=1;verticalAlign=middle;whiteSpace=wrap;rounded=0;fontSize=12;fontFamily=Helvetica;fontColor=#095C86;" parent="1" vertex="1">
          <mxGeometry x="687.42" y="-760" width="150" height="90" as="geometry" />
        </mxCell>
        <mxCell id="Gn1gKcj53Svm0TnLtsEw-48" value="&lt;font color=&quot;#cc1d28&quot; style=&quot;font-size: 28px;&quot;&gt;&lt;b style=&quot;&quot;&gt;User&lt;/b&gt;&lt;/font&gt;" style="text;strokeColor=none;align=center;fillColor=none;html=1;verticalAlign=middle;whiteSpace=wrap;rounded=0;fontSize=12;fontFamily=Helvetica;fontColor=#095C86;" parent="1" vertex="1">
          <mxGeometry x="510" y="-990" width="150" height="90" as="geometry" />
        </mxCell>
        <mxCell id="Gn1gKcj53Svm0TnLtsEw-49" value="&lt;font color=&quot;#cc1d28&quot;&gt;&lt;span style=&quot;font-size: 28px;&quot;&gt;&lt;b&gt;git pull&lt;/b&gt;&lt;/span&gt;&lt;/font&gt;" style="text;strokeColor=none;align=center;fillColor=none;html=1;verticalAlign=middle;whiteSpace=wrap;rounded=0;fontSize=12;fontFamily=Helvetica;fontColor=#095C86;" parent="1" vertex="1">
          <mxGeometry x="1020" y="-708" width="150" height="90" as="geometry" />
        </mxCell>
        <mxCell id="Gn1gKcj53Svm0TnLtsEw-50" value="&lt;font color=&quot;#cc1d28&quot;&gt;&lt;span style=&quot;font-size: 28px;&quot;&gt;&lt;b&gt;webhook&lt;/b&gt;&lt;/span&gt;&lt;/font&gt;" style="text;strokeColor=none;align=center;fillColor=none;html=1;verticalAlign=middle;whiteSpace=wrap;rounded=0;fontSize=12;fontFamily=Helvetica;fontColor=#095C86;" parent="1" vertex="1">
          <mxGeometry x="960" y="-930" width="150" height="90" as="geometry" />
        </mxCell>
        <mxCell id="Gn1gKcj53Svm0TnLtsEw-51" value="&lt;font color=&quot;#cc1d28&quot;&gt;&lt;span style=&quot;font-size: 28px;&quot;&gt;&lt;b&gt;kubectl apply&lt;/b&gt;&lt;/span&gt;&lt;/font&gt;" style="text;strokeColor=none;align=center;fillColor=none;html=1;verticalAlign=middle;whiteSpace=wrap;rounded=0;fontSize=12;fontFamily=Helvetica;fontColor=#095C86;" parent="1" vertex="1">
          <mxGeometry x="1300" y="-930" width="150" height="90" as="geometry" />
        </mxCell>
        <mxCell id="Gn1gKcj53Svm0TnLtsEw-52" value="&lt;font color=&quot;#cc1d28&quot;&gt;&lt;span style=&quot;font-size: 28px;&quot;&gt;&lt;b&gt;git pull&lt;/b&gt;&lt;/span&gt;&lt;/font&gt;" style="text;strokeColor=none;align=center;fillColor=none;html=1;verticalAlign=middle;whiteSpace=wrap;rounded=0;fontSize=12;fontFamily=Helvetica;fontColor=#095C86;" parent="1" vertex="1">
          <mxGeometry x="1020" y="-708" width="150" height="90" as="geometry" />
        </mxCell>
        <mxCell id="Gn1gKcj53Svm0TnLtsEw-53" value="&lt;font color=&quot;#cc1d28&quot;&gt;&lt;span style=&quot;font-size: 28px;&quot;&gt;&lt;b&gt;docker build &amp;amp; push&lt;/b&gt;&lt;/span&gt;&lt;/font&gt;" style="text;strokeColor=none;align=center;fillColor=none;html=1;verticalAlign=middle;whiteSpace=wrap;rounded=0;fontSize=12;fontFamily=Helvetica;fontColor=#095C86;" parent="1" vertex="1">
          <mxGeometry x="960" y="-413" width="300" height="90" as="geometry" />
        </mxCell>
        <mxCell id="Gn1gKcj53Svm0TnLtsEw-59" style="edgeStyle=orthogonalEdgeStyle;rounded=0;orthogonalLoop=1;jettySize=auto;html=1;exitX=0.75;exitY=1;exitDx=0;exitDy=0;entryX=0.669;entryY=1.008;entryDx=0;entryDy=0;entryPerimeter=0;strokeColor=#60E696;fontFamily=Helvetica;fontSize=12;fontColor=#095C86;fillColor=#F694C1;" parent="1" source="Gn1gKcj53Svm0TnLtsEw-12" target="Gn1gKcj53Svm0TnLtsEw-12" edge="1">
          <mxGeometry relative="1" as="geometry" />
        </mxCell>
        <mxCell id="Gn1gKcj53Svm0TnLtsEw-60" value="" style="edgeStyle=segmentEdgeStyle;endArrow=classic;html=1;curved=0;rounded=0;strokeColor=#001DBC;fontFamily=Helvetica;fontSize=12;fontColor=#095C86;fillColor=#0050ef;shape=flexArrow;" parent="1" target="Gn1gKcj53Svm0TnLtsEw-12" edge="1">
          <mxGeometry width="50" height="50" relative="1" as="geometry">
            <mxPoint x="1420" y="-220" as="sourcePoint" />
            <mxPoint x="1480" y="-270" as="targetPoint" />
            <Array as="points">
              <mxPoint x="1610" y="-220" />
            </Array>
          </mxGeometry>
        </mxCell>
        <mxCell id="Gn1gKcj53Svm0TnLtsEw-61" value="&lt;font color=&quot;#cc1d28&quot;&gt;&lt;span style=&quot;font-size: 28px;&quot;&gt;&lt;b&gt;docker pull&lt;/b&gt;&lt;/span&gt;&lt;/font&gt;" style="text;strokeColor=none;align=center;fillColor=none;html=1;verticalAlign=middle;whiteSpace=wrap;rounded=0;fontSize=12;fontFamily=Helvetica;fontColor=#095C86;" parent="1" vertex="1">
          <mxGeometry x="1050" y="-220" width="300" height="90" as="geometry" />
        </mxCell>
        <mxCell id="Gn1gKcj53Svm0TnLtsEw-63" value="&lt;font color=&quot;#cc1d28&quot;&gt;&lt;span style=&quot;font-size: 28px;&quot;&gt;&lt;b&gt;deployment&lt;/b&gt;&lt;/span&gt;&lt;/font&gt;" style="text;strokeColor=none;align=center;fillColor=none;html=1;verticalAlign=middle;whiteSpace=wrap;rounded=0;fontSize=12;fontFamily=Helvetica;fontColor=#095C86;" parent="1" vertex="1">
          <mxGeometry x="1590" y="-528" width="300" height="90" as="geometry" />
        </mxCell>
        <mxCell id="Gn1gKcj53Svm0TnLtsEw-64" value="&lt;font color=&quot;#cc1d28&quot;&gt;&lt;span style=&quot;font-size: 28px;&quot;&gt;&lt;b&gt;ReplicaSet&lt;br&gt;&lt;/b&gt;&lt;/span&gt;&lt;/font&gt;" style="text;strokeColor=none;align=center;fillColor=none;html=1;verticalAlign=middle;whiteSpace=wrap;rounded=0;fontSize=12;fontFamily=Helvetica;fontColor=#095C86;" parent="1" vertex="1">
          <mxGeometry x="1357.5" y="-413" width="300" height="90" as="geometry" />
        </mxCell>
        <mxCell id="Gn1gKcj53Svm0TnLtsEw-65" value="&lt;font color=&quot;#cc1d28&quot; style=&quot;font-size: 28px;&quot;&gt;&lt;b style=&quot;&quot;&gt;git push&lt;/b&gt;&lt;/font&gt;" style="text;strokeColor=none;align=center;fillColor=none;html=1;verticalAlign=middle;whiteSpace=wrap;rounded=0;fontSize=12;fontFamily=Helvetica;fontColor=#095C86;" parent="1" vertex="1">
          <mxGeometry x="665" y="-934.6" width="150" height="90" as="geometry" />
        </mxCell>
        <mxCell id="pmpaLFh2XB2QNdnhBSW1-3" value="" style="shape=image;aspect=fixed;image=data:image/png,iVBORw0KGgoAAAANSUhEUgAAAgAAAAIACAYAAAD0eNT6AAAABmJLR0QA/wD/AP+gvaeTAAAgAElEQVR4nOzdeXxdZZ0/8M/33JulhaYFZW/R0iRtCbS5SQtUUNNRYQrNTUEzOo77guu4MCqj4/ymwzgjrrihUhRFEMWwtAmligoBQZY2SwspTW5KgUJZBGm65ubee76/P5KWtM1yl3POc+45n/fr1derTc55ng9Lc773Oc8CEBERUeiI6QBElD0F5OmLzpyRRPkxYtkzMtAZlmCGih4tKuUKnWYpojYwQyyJQu2KA/eKiqUi08dqV1QHVNR+9QvWLkAzYuMVW5AWyG4VHRSVPbZiZwSyU21rZxkGXzl17aM7BVAP/vGJyEEsAIh8oP/iBcdrumQmxJ4J1ZkQHGeLdbyofZJAjgdwnAInABjzAe4DAwK8oNAXAfxNxXrOUvtFKP4GkWeg1jMSTT1TefumF00HJaJhLACIPNDTXHNsdLBkjkAqIagEMEchpwp0JoBZAMoNR/TKIIDtCnlGoE8D6Idiq0L70+WprTUtPX83HZAoLFgAEDlEV8Lq766fDdXTYevpEJyuinkAKiE41nS+oqD4O4B+EWyBYjMs2azpSE/V4vVPykrYk95PRFljAUCUh63N9dPtQbsWkBhEYwqcAWA+gCmmswXUPgBbADwKaBcgXZIq7a5a9/Au08GIihULAKJJbInPnRZF+SIV62xVqQO0DsBp4N8f0xTAVkC6RLRT1H44jcEN81p7d5sORlQM+AOMaBQFpL9x4emAdQ6AcyA4W4HTAURMZ6OsZATYDMhDgD4EtR+ubNu4masUiI7EAoBCTZubI/2DffNUIucCeCugSwG81nQucpLuBuRhUfzJhvXA7pPw8KJVHSnTqYhMYwFAodN/0YIzNBp9myreAugbAVRMehMFyQAg94vgz5JO/7Fy7abHTAciMoEFAAVe/8ULjteM9WYF3grIMgwvuyM64EVA7gXwJ4mm76y6bdMzpgMReYEFAAVSonFhDWAth6BRgTeA/69T9jZD0Ka2dUd1fcdfufyQgoo/FCkQdjTWT92NzPkQWQ7gIgFONJ2JAuE5Uay1oWunIXLXyW0d+0wHInIKCwAqWjsa66futfQtNrRZVFcAMs10Jgq0/YD+WUVarKHS1dyDgIodCwAqKttW1M5IZbACgrcD8jYAZaYzUSgNQvFHFb01WhZZPaelY8B0IKJcsQAg30ssqyxDacX5w5/08XYAU01nIholCegfVaRlcH/m1oV3bdprOhBRNlgAkC/pSliJztq3QKx3Q/UScKkeFYcBqN4GS26qinXdzQmE5GcsAMhX+psWz1I7/W4VfAzAbNN5iArwLAQ3Wio/q2zt7DcdhuhwLADIuG0NDeXpip2NCrkUwFvA/y8peDoAWZUqS95U09Kzx3QYIoA/aMmg3sb6eWLZH4DiUgDHmM5D5D7dDeA3asuP597RtdF0Ggo3FgDkqZ7mmtLSZEkTP+0TDY8KTCkru2FWy4P7TYeh8OEPX/JEf9PiWRk7/UkRfBjAcabzEPnI31Txc6skczW3ISYvsQAgV/WvqKvPqH5WFO8CUGI6D5GP2YDeCZHvV6/p+pPpMBR8LADIcRsurS+peM5+B4DPQXCW6TxExUcfVsj3duyafsvS9va06TQUTCwAyDGJZZVldum0d4riqwCqTOchKnYqeEpUrzpaI9fyHAJyGgsAKlhi2dkVWpL8ICCXAzjJdB6iAHpJIVfbkegP59/+yMumw1AwsACgvG2Jx062oF8E5KMAjjKdhygE9qjqtZmSyLdOv63jOdNhqLixAKCc9V+84HjbjlwGxWcATDGdhyiEhgD9pdp6xdw7Nj5rOgwVJxYAlLUn4meckJaSz/PBT+QbQ4D+UqL2/3AJIeWKBQBNauTB/x8jO/bx+F0i/0lCcY0Vzfxv5e2bXjQdhooDCwAaV09zzdGlg6WfUsFXwNP4iIrBXgh+VCJ65ezV3TtNhyF/YwFAR9jevGTK/uT+T4/M6n+N6TzkqDQgfxDV29OW9YhlZ8pF5EEAEdPByFEvQ/XKKeVTruY2wzQeFgB0kK6E1ddZ+16BfA3ATNN5yFEvKvDNEqRuPK31sRcOfLE3HlstQJPJYOSqZ1TwH9WxrhtlJWzTYchfWAAQAKA/vnCpDevbAOpMZyFH7YfgB5FS6+tzWjoGRn+jd8XCs8S2HgJ/DoRBp1j6b1Wru9tNByH/4F/8kOttrJ8nsL8JQaPpLOS4TgvyzsrWzv6xvtnXGLsHggaPM5FBCqxRZC6f17qp13QWMo8FQEhtba6fnknqfwP6KQBR03nIWQK9Gqk9/1a1rj851vd7m+reKKr3eZ2LfCElwA+RKv3vqnUP7zIdhsyxTAcgbykgfU11H8wk7V5APws+/IMmI4qPVLV2f3q8hz8AiK0f9zIU+UqJApfZJUO9vfHa9ys/CIYW/8OHyJZ4bJEF/REgZ5vOQq4YguLd1W1dt0500bYVtTNStjwP7ulAACB40BL518rVnR2mo5C3WACEwPBwv30lgEvBUZ+gGhS1m6raNt412YW9TbH3ieJ6L0JR0bBV5KfWUMmX+VogPPgwCLhEY21TJmn3APg4+N87qGyBvi+bhz8AiOoKtwNR0bFE9ZNaMtSTaKrjhOCQ4AhAQD0RP+OElJR8SxTvNZ2F3CUil1Wt6bwqm2t1JaxEZ+wlAMe4HIuKmt6htn6cBw0FGz8RBowCkojHPpRGyeN8+AefQK/O9uEPAInu2gXgw58mJctFrE19TXUf5CTB4GIBECB9Fy0+LRGP/UGBn4M/5ANPgA1DZanLcrpJrZhLcShoBMdC9bpEPNa+Jb5gruk45DwWAAFwT0NDtC9e+0VE0o8BeJvpPOSJAc1E31nT0jOUy02iWuNWIAqsN1mIdPY11n7hnoYGLhsOEBYARS4RXxg7pWLgYUC+CWCK6TzkDRF8pHrt+idyvU8hJ7qRhwJvKkS+dUrFwEN9K2prTYchZ7AAKFIKSF+89rMK6yFw//5QEcXNVWu6bsnvbn2ts2koZOphy/reeN1KbW7mCZJFjgVAEepvWjwr0Ri7G5DvASg1nYc8NZAR5PbefxTh8c5UuKhA/ysx1P+XLY0LZpsOQ/ljAVBkepvq3mlreiMPcQknhX5xXmvXjgLuP9bJPBRiiiWWRDoS8dpm01EoP1zeUSQSy86uQMnQDxV4n+ksZIjgwao1XecKoPk20RePPQGAn9rIWSK/tHXvZ+a19u42HYWyxxGAItC7YuFZWjLUwYd/uKltfamQhz8AQGSvQ3GIXqX6AQtTN/U21p9nOgpljwWAj93T0BBNNMYuF9u6H0Cl6Txkkt4+t63j/sKb0T0OhCEay+tF7Hv6mmJXbri0vsR0GJocCwCf2nxh7HWnVAzcrYIrAfAvU7hlROSrDrXFAoDcFIXi8ornM39JrKifYzoMTYwFgA8lmuoao1FsBPBG01nIB0RuqFrTtdmRphQvO9EO0cTkbLXt9X3x2otMJ6HxsQDwEQUk0Ri7XFVXA5huOg/5goqd+bZzjaHPqbaIJnEMIG19TbErdSWfNX7E/yg+0dNcc2xfPHbnyJA//7sQAECB1qq2jT1OtSfQXqfaIsqCQHF5f2fsjqcuOpPnk/gMHzQ+0LeitrYkWbJegH80nYX8RaHfcrK9DIQFAHlOgWXJSLR7Szy2yHQWehULAMN6m2Lvgy1/BeQ001nId9bPa+1+wMkGI6nSPhS6lJAoP6dawL2JeN17TAehYSwADLmnoSHa1xS7UhTXg4f40BgUeq3TbVate3gXAI4CkClTFXpDX7z2mp7mGm5jbhgLAAO2xGMnn1wxcC8Ul5vOQr6110qV3exGwwL5ixvtEmVPLi1Nlt69JR472XSSMGMB4LH+pto3CNAhwBtMZyFfu3nk07rzVFkAkHEKnGsBGxLLY0tMZwkrFgAeSjTW/ZOt8mcBeCY7TUjV+oVbbacjLADIN05SC3fzQCEzWAB4JNEYu1xFfwug3HQW8r3nqus7/upW4/NXdz8J4Gm32ifKUblCftsXr/2i6SBhwwLAZdrcHOltqrt6ZH0/T1+kSanI7bIStsvdrHW5faJcWIB8szce+xnPEfAOCwAX9TTXHJ1Ibl0jqp80nYWKh0Bvd7sPVbS53QdRrgT4cMXz9trEsrMrTGcJAxYALklcsmBmSbL0fkC5Fzbl4pVdJ1j3ut2Jld59N3gwEPnT27Rk6N7e5QtPMR0k6FgAuODxpvozNR35K4CFprNQkRHcvWhVR8rtbqrW9Sch+IPb/RDlqVYs65FEY32d6SBBxgLAYb2NsWURzTwAYJbpLFR8VKXds76AVq/6IsrDySqZ9kRT3QWmgwQVCwAH9TbVfkQErYBMM52FipOlmXu86itaaq0BMOhVf0S5k2mqekeiMfZh00mCiAWAQ3qb6j4lKqsARE1noaL1YmXbxs1edTanpWMAwtUA5HtRFVzbG49dZjpI0LAAcEBfPPafovojcJkfFUQfEK8P6rHxG0/7I8qPCPCdvnjsq6aDBAkLgAL1xWu/AeAK0zmo+IlIt9d9luyevhaAO1sO+9sggITpEJSz/+lril1pOkRQsADIkwKSiNf+CJAvmc5CAWHrRq+7nN3ePgiR27zu17AXAVwAYIbpIJQHxeWJeOyHyhHXgrEAyIM2N0cSTXXXKeRTprNQcKQy3o8AAIClmV+Z6NeQJ5GJLlGR1wA4znQYyo8Cn0401v5cm5sjprMUMxYAOdpwaX1JXzJxE1Q/YDoLBcrO+Xd2Gdmff07rxnZAnzDRt8e2pdNoqF67/gmx9YOmw1CBRD7YP9j/a24dnD8WADnY1tBQXvGcfatA/sl0Fgoa2eb5BMADPQ+/0fqlib499HQ6jaWn39n11LYLF58IwTLTgahwKnhnxXP2rdsaGnjIWh5YAGRp4/kLjkpVDLRB0Gg6CwWRbjfZe0St6wHXDyAyZaeofeHpd3Y9BQDpSOoScLlucAgaUxUDbRvPX3CU6SjFhgVAFrY3L5lSXh5tA/BW01kooARPmex+TlvH0wD+bDKDS1IQNFe1bew58AUV/j0OoLdOLY/8gUVAblgATKKnuaZ0/+DgLQJdajoLBZjKM8YjANeZzuCCz1Sv6frTgT8MTxqTBoN5yCUKnDulLPK7nuaaUtNZigULgAnc09AQLRkqvQmCC01noWBT2C+YzmCldt8O4CXTOZyighuqW7t+OvprfYOJOgDHGIpEbhNcWJIs/TVXB2SHBcA4dCWsk6cPXAfF201noeCzgH2mM1St608KcL3pHA7pmWZbHz/8i5YlbzERhjz1jv5k/3W6ks+3yfBf0BgUkERH7MeieK/pLBQO6oMCAAAyyFwLQ6sRHDQksN97clvHEf9O1cYbTAQibynwvkRn7EfcLGhiLADGkIjXXgnBx0znoPCwoL4oAOa1buoFcJ/pHAURuaKqdWPX2N/TGo/TkDmfSMTrrjIdws9YABymLx67gtv7ktdUI/tNZzhIcY3pCAVY/+xAxTfG+sb25iVTAHm9p2nIMP1sb7xupekUfsUCYJREY93nAPyn6RwUPraqbwqAVPnQrQD+ZjpHHmy17E8vbW9Pj/XNwcGh+eDPvNAR6H8lGmOXm87hR/zLMKK3qe5TKsrhIjJCrcyg6QwH1LT0DAlwg+kcuRLgx3NXb3xk/Asy8z2MQz6igq/3xWNHTAoNOxYAAPoaY28X1R+YzkHhZacjvikAAMBWq9gmA75olVkTnhWvkNO8CkO+IwCu7m2sXWE6iJ+EvgDYEo8tguB68N8FGVRalvHNKwAAmNvWsQXAX0znyJYAK+e0dAxMeJHitR7FIX+yROSmRGPdOaaD+EWoH3pbGhfMtoA7AHD7SDJKB6f4agQAAAS6ynSG7EjvwInWzya/TF7jQRjytykq2tYfr6s0HcQPQlsA9DTXHGtJdB2AE0xnIRo6eo/vCoDorhm3AnjZdI7JqODLi1Z1pCa7TqDHepGHfO+1tmrrUxedGfodIUNZACSWVZaVJEtvB3Su6SxUGIXcA2CH6RwFsmtaeoZMhzjc7Pb2QVX9lekcE5Ou6jWdq7O5UhUcAaBhgvmDkZJbw35uQOgKAAVESyp+DuBNprNQ4VTxterWrlMyYi0A8BMAe01nyoPvPv0fYFky+dC6Qar2FZLtZEVBhctxqIgIdGlpsvTaMO8WGLoCIBGPXQHov5jOQc6ICN4FAPPXdDxa3dr1ybJMepYA3wGQMRwtF76aADha1ZquzRA8aDrHODZWt3WvMR2CipcC7+uL1/2X6RymhKoA6Guq+yCACZcKUXFR6DtGD+O9bu2jr1S1dn1BVM4DsMVgtByIr0/gExs/N51hLAL5dtaf/onGIdD/1xuvfb/pHCaEpgDoa4q9FarFvMUpje2Y0lTJEQe8VLV1PpQqG1oM4I8GMuVIXzSdYCJD5UM3A9hjOsdoCjyP1K6WHG9isUBjEYGs6o8vXGo6iNdCUQBsXV5bBUULgBLTWch5tm01jPX1mpaePamyoeWiuNnbRDl7wXSAidS09OwB8DvTOQ4l11St60/mdgsLABpXqQ3r1sSK+jmmg3gp8AXAxvMXHGVbciuAGaazkDsEOm7lXtPSM1RZ3/VuAXw7m11FfD0CAACWqJ9eAwyVpiM/zeO+Mc8IIBpxjNr2rTsa66eaDuKVwBcAU8oj1ypwpukc5KqzE8sqy8b7pqyEPVQ29FEo2j3MlDUL6usRAACoXNP9VygeN50DABT6u9l3rn8+jxv/7kIcCpaFe6RYNsAqXKALgERT3ecB/LPpHOS6skxJxYR7OtS09AxFyq0VEHnMq1DZUpXcH2YmiP7CdAQAgCK/czuEBQBlQ/+lrzH2r6ZTeCGwBUBfPPYmVR3zXHAKHkvsMya7Zk5Lx0DGyrwdPtsrQKU4jt6NIv0rAJPuuOcqwYNz27rX53ez+nq1BfmI4Du9jfXnmY7htkAWANsuXHwigN+Ck/5CQ2DVZHPd/Ns39gH4gstxcmJltChGAE5rfewFEVlrMoNCr8v7XhWOAFC2SkTsW3qXLzzFdBA3Ba4A6GmuKU2VpG8DcJLpLOQhW7OevVvV2nUNFHe6GScXYklRjAAAgJrdEyBZKrgl77uLZKSFfOMEy7Ju3nBpfWA/SAauAIgOlV0FxRLTOchbKjgx22sF0JJM9MN+mRSWLEsWxQgAAFSVz1kHc2cvrJ29untn3nerPuFgFgoBBc6teMH+jukcbglUAZCI171HVD9pOgd5T3Ic8Zl95/rnVcQPW4C+NLLOvihIS0tGgOtN9K0iNxZ2v8UCgHKn+Ne+xtoPmI7hhsAUAH0ramu1aM4vJ6cpcHyu9+zYVfFTAJtdiJM9QcJo/3kQyHXwfgveV6yhXQW9tkkOpreCWwdTPkSu3hKvW2A6htMCUQDsaKyfClt+A2CK6SxkTM6bdyxtb0+L2p93I0y2FOg32X8+Kls7+wHc52WfArkl553/DrPwrk17ARTN6xbylamW6m+3Ny8J1DMmEAXAHtjfBTDPdA4yqiSfYz2r2jbeBZib2W4VYQEAAKK4wdMOVX/tUEtFN+JCPiGYv28o+W3TMZxU9AVAorG2CYKPmc5Bxkn/ssrSyS87klqZK5wOk3XfdnE+kKIRvRXAoEfd7ais7/qLIy0puh1ph0JJVD/R11i33HQOpxR1AbD5kvqTVORa0znIH6L7Z+Y8AgAAc1dvfASGTg1UaFGOAIzMxr/Dm970DlkJ25GWRDudaIdCSyD685G9Zope0RYACkg0Zf8MwHGms5Av2K9vb8/7HbFY+n9OhslWuZ0pygIAAFTkJm86stqcasqWCAsAKtTxqZLM9fm8cvSboi0A+hvrPgvBhaZzkG/slwJmeFet7m4H9H4H82TjpdetffQVj/t0TLo0uRbAyy53s/9oyN1ONTav9LTNAPY51R6FlOr5iabiPy+gKAuAx5vqz1TRr5vOQb5S+A91le85kCN7RbgEcLSalp4haAE782VF/3xyW4djD2xpaclAsNGp9ijEFN/ov2jBpGeQ+FnRFQCJZZVlEbVvBFBuOgv5iKLgg16e3T19DTzc5U60uAsAAFBLnJqdPw7nhv8PUnVmQiGFXbkdiRT10sCiKwA0Ou2bAAK3IQMVSPBioU0sbW9Pi8gvHUiTFQ3AkrTqNZ33A3jSpeZV7YzjSzRVpd3pNim0avYnk0U7Gl1UBUCiqe4CCIr+vQs5T9SZDV4ydvpngDMzzicjwCYv+nHT8LwLaXGp+a65d2x81ulGVfbdDyDtdLsUVvqZROPC802nyEfRFABb4nOnqeq1CMDMS3Keij7nRDvz2jZtg0dLAlPpYLyLVrVdKQBE5PdutDuvtXc3FFwNQE4RFevaLfG500wHyVXRFAARTP0/ALNM5yB/UlhbHWtM9FeOtTW+V+bf2fW0B/24rrqtewOAbU63q2q3O93mwbYBx1YWEAE41ZKp/2s6RK6KogDoa6o/WwGe8kfjshycUZ8qTbUC2O9Ue2NSbCxk2aKfjLwGcHo1QGr/oP1Xh9scxTK2/TMFlOJTW+K155qOkQvfFwCJZZVlUPs6FEFWMkfTEccKgOHjedWV4edRiv79/2hOvwZQYP3I4T2uqC4/7UGg8JUjRKNYFuSanuaavLYkN8H3D1W7pOLLAE43nYN8bf+ze49ydjhdXZvYBgAQYIOb7XvN6dcAlrg7U19aWjIqWOdmHxRKNaVDpf9uOkS2fF0A9DbWzxNo0fzLJEMUjy5tb3d0VneqfKgNLr4GsFQfcqttE4ZfA6hjRZOb7/8PsGzx6CwDChNV/EeicWGN6RzZ8G0BoCthiWVfB6DMdBbyOVHHT3iraenZIyJ/cLrdEa+cdkd30Z4BMB51bldAl9//D8vI3nVwe64HhVEpxLpGV/r3+XqAbwMmOmKfgmKJ6RzkfwJx5YhXBdyZByCyPigTAEerbuveoIKnCm3H7ff/B8xr7d0NgJMByXEKnNvXVfcJ0zkm48sCYGtj/akQLbolFWRGBljvRru2nb7LjXah+rAr7RomgIo68F5dcZ8DcbLt67ee9UWhIqr/19+02NdL131ZAGRg/wSQottUgYzYu+dEy5UNdUY2BXJ8u16VYL3/H03gxMQ67wqkKeXldwLY5VV/FCoVtqZ+bDrERHxXACTitc085peypli/aFVHyq3mBer0KEAmWhp5wOE2fWOobOhuAMlC2lCRRxyKM6lZLQ/uF2C1V/1R2MjyvnjdJaZTjMdXBcCOxvqpCvm26RxUTNTlh6k4WgAI0DWnpWPAyTb9ZGQPhUJeyTwzr7XLsxMZAQCK6zztj0JGv+PXEwN9VQDsEfvLAE41nYOKh6rc42oHqdJ2ABkHW7zXwbb8qpAZ/J59+j+gsq3rPgH6vO6XQuP1+5LJy02HGItvCoDEivo5AL5gOgcVlX1WZvf9bnZQte7hXQAec6q9MBxFK5C8R2VEvS8ABFAIfuF1vxQeAv3SlsYFs03nOJxvCgDN2FcBKDedg4qIor1qXX9B75uz9KBD7WRKIrarBYsf2GrlPQKQgbiyomMy0VT0lwBcm0tCoTclYkW/azrE4XxRAPTH6/4RgkbTOajIWHBro55DqDhWAKyfvbp7p0Nt+dbcto6XADyTx612JF1iZIvk2Xeuf14Ut5nom8JBVVf0xWvfZjrHaMYLAG1ujthQTvyjnKltubNO/zDRjDpSAIj7Bwz5hub32mTLyCsXI8TSH5jqm8JBIN/R5uaI6RwHGC8AEkNbPwKgKPZNJv9QwVNz2zq2eNHXyLa9fyu0HZVIaAoAEcmjAJAu55Nkr3JN91/h0qZSRACgwJl9Q4kPms5xgNECYEt87jSo/rfJDFScRNWT4X9gZJKYotDNe16uKj0tUCcATsi2e3K9RZH7PU5TwY9MZ6CAU/mfnuaao03HAAwXAJZOuRzACSYzULGyPCsAAACCQs8buEtaWpxcTuhrdh4jAKLWo25kyUW6dOi3yG/+AlFWBDixJFnqi2WBxgqA/qbFsyByman+qajtT5UlPXn/f4BoPkPao+6HhurQmQq1NgOwc7knAtnkUpys1bT0DImI72ZrU+BclrhkwUzTIYwVALamVwLw5e5I5Hf6++Ed5zxkaSEFQNIqi4Tq7PmT2zr2AXgih1sGTmvr2O5Wnlzs259eBeAl0zko0KYiHf1/pkMYKQB6G+vnAXifib6p+Aksz5drPTMwvQ/57nGv+HOQt/8dT24TAfVRvxyRvPCuTXtF8EPTOSjYFPrBxy9eWG0yg5ECQCz7awCiJvqmopcqzaQ8H05f2t6eBtCbz70iuNXhOEVBNZeTFMX4+//RhkqHvgvgBdM5KNCi0bR1hckAnhcAW+KxRVD49nQk8ju563VrH33FUN/5PKQySKHN8ShFQAVPZXutAL4qAGpaevaIypWmc1CwqeCfEo31dab697wAsID/AyBe90vBIFBju7XluUztnqp1XQXvIVCMxM6+AFDA+BLAI6R3/SSXIoYoDwKxv2aqc08LgERj7M0AfLUVIhWVdDpSssZU55ZaW3O9RwU3uJGlGGQsyfrhWZKO+u40vqp1/Umo/pfpHBRsCizbEq8910TfnhYAtgj/MlEh2uff/sjLpjq3I5knc7xlT7p0KLT7y0eHotkWALtm37n+eVfD5Km6rOpG5LWrIVH2LMhKM/16ZEu89lyBLvWqPwoeUfzWZP9W0tqWy/UC3Ob5ckUfGdnXf9LDjwTw3af/A6SlJSOq/2E6BwXeW3ub6t7odaeeFQCWCLf8pUIkoxE1Opt+5F1+1g9028avXIxTLJ6c7AJFLqsFvFfV2tUK4C+mc1CwCfBVr/v0pADobaw/D4q3eNEXBdZaXxylK/Jkllc+Xb2o6x43oxQDxeST6HJbLmiGqv4bfLJPAQWU6vmJ5bElXnbpSQEgYhvf8YiKnOIm0xEAALZm9RpAoT+VlblthRtEopMXAJaob18BHDC3rXu9Qn9tOn4oT64AACAASURBVAcFm1rwdJ6c6wXAlnhsETjznwozULJ7ul/20s+mABi0UvIz15MUA5FnJ7vEttT3IwAAEJGSrwDYbzoHBdoFXu4L4HoBYAn+3e0+KPBund3ePmg6BACo6OSz1VV/E9a1/4fL5t9XecouigKgcs367VDlQUHkKlsynp0U6GoBsHV5bRUUF7vZBwWf2j4Z/gdgqbw46TUR62ovshQDUX1uwgsUfze3s2PubNn/DQV8uWSRgkEgb++P11V60ZerBYBtWV90uw8KvB3VUyrbTYc4yJqsAND7K1d3dngTxv8yEpn4YSnZbxbkB/Nae3cDyjlN5KaIrfoFLzpy7eG87cLFJyr0vW61TyEhcpO0tGRMxzjIxoRD+xas//UqSjGwbEw4AiBFuNVudVnVdX47u4ACRvCBzZfUn+R2N64VAKmS9OcAlLvVPoWDZvRG0xlGUzsy7giAABsqWzt/72Uev6tu63gZQGq872sWqwT8RlpaMlDbk09oFFplJWn7X93uxJUCYOP5C46CjY+60TaFyqa5d3RtNB1iNDuya9wRAFuVn/4PI8Nr58c9VlehT3sYxzFVbRvvAvAn0zkouBS4dEdj/VQ3+3ClAJhaZr0fgmPdaJvCQ+G/nfSG3wFj3xjf6qmu7271Ok+RGPc1gCDrjZV8R1W/Am4ORO55zR7L3dfojhcACohCPu10uxQ6mUzU8s3s/8MccSCRAF/hxj/j0PFnzdtFOgIADG8OBMUdpnNQgNn6WQXEreYdLwD6GmP/CMF8p9ulcFHgj6ff1jHxEjJz9o7+g0LuGdkvnsYi4y8FFLWe9DCJ4zKW9R8ACz9yiWD+1njdBW417/wrAMFnHG+TQkdEbzCdYQKjC4AMbP28sSRFQcabA7BvZJJg0Zq/puNRQIweUkXBloF+1q22HS0AHr94YbUArlUrFBa6+2g7stp0igkcLABE8Qu/TVT0G9FxdwPcIUF4hx7BfwHwz1JVChQBLnj84oXVbrTtaAEQzVgfg4vvKygkxLr15LaOsSba+YMePBL4lYikPD/Cs9ioWOMVAH59xZOT6ts7H1fxz26VFDgSzViXutGwYwXA9uYlU1TxAafao/CyNOO72f+HkOFVACr43Gmtj427xI2G2bDH+3c06UFBxcIW/X8AhkznoGBS4ENuLAl0rADYl9z/T1z6Rw54ek7dxntNh5iQyB5A1s5d0+XvQsUnrEzJOJ/0szhYqUjMX939pECuN52DAuuY3Zb9DqcbdawAEOATTrVF4SUiN/p9OZ2oPifR9MdN5ygWR1v2uHMAPA3isoymvw4gbToHBZMAjv/McaQASMQXxgA524m2KNzUgq+2/h1LBvu+XnXbpmdM5ygWw/M5dPfhXxdYgZgDcMC8tk3boPid6RwUUIolvctjC51s0pECwJbIR5xoh0JvffXtnY+bDjGZkd0AKSdyxChARoM1AgAAtsg3EISVDeRLEsGHnWyv4AJgW0NDuaj+sxNhKOQUfl77T4U5ogCwosFYBTDavNbOTVCsM52DAsrGvySWVZY51VzBBcDQ9F1NAI5xIAuFW0rS+K3pEOSWI0cAUtFkIFdQWGJ/23QGCijBsSg5Ou5UcwUXAKL6QSeCUMgpfl+1rmvck/aoyMkRM/7Tp9f07DSSxWWVrRvvEeBR0zkoqMSxZ25BBUDikgUzAbzVoSwUYmrJr01nIDcdsR3wy35f7VEIG/pD0xkomBS4oL9p8Swn2iqoANBM9P0AIk4EoVDbO7g/zVPVAkzsI0YAivoMgMlMLZtyIwL+z0jGWBlNvceRhgq629Z/cSIEhV7bwrs27Z38MipWeuQrgJeMBPHIrJYH9wP6c9M5KJgE4sizN+8CIBFfGOOxv+QEUeXkv4CzrMPOAxAEf75HpuQacEkguaNmS7xuQaGN5F0AqETeXWjnRAB2RXfP+IPpEOSuTDpzaAFgB3sEAACq165/AsB9pnNQMFmiBT+D8yoAdCUsqL6r0M6JoHrr7Pb2QdMxyF079hzzAjB60p8GvgAAAFHwNQC5Q/FuXVnYa/y8bu7viL0RwMxCOiYCALGsm01nIPctbW9PK/DigT+ryN9N5vFKeXn5LQACudyRjJvV11V3biEN5DcCAHDnP3LC354ZqPiz6RDkDQGePPB7SzFgMIpnZrU8uF8Ut5jOQcFU6C68ORcA2twcgeDiQjolAgAoblva3s7T08Jj26u/ldCcp5CB/MZ0BgomBS7W5ua8l+LnXAD0pxJvBHB8vh0SHSCwbzOdgbwjItte/T12mczipbn1ne0I2NHH5A8CnJhI9uf9GiD3VwC2vD3fzohGGRgqT7ebDkHesWEfLADSsEMzAiArYYOvAcgtiryfyTkVAAqIgsP/VDhR/L6mpWfIdA7yUEZGvQKwQlMAAIBlKSe7kjsElygg+dyaUwHQvzx2DoBT8umIaDRbsNp0BvKWaPRgAaCWHZpXAAAwJ9b9EIBAnn5Ixs1MNNWflc+NuY0AWMJP/+SEoWiZxTPTQ+bZvUc9DWB40qeUhmoEQFbChgj/nyd3aOaSfG7LcQ6ANubTCdFh7p3T0hGKZWD0qpEVH9sBwI7uDVUBAACwlQdekTtU8no2Z10AJFbUzwEwL59OiEYTVQ7/h5QAWwAkwzj/I1U+9AcASdM5KIAE8/vjdZW53pb9CECGn/7JEYoSu9V0CDJDIY8BCN+nfwA1LT17BHjAdA4KJlv0wlzvyboAUEuX59o40Ri6qm7b9IzpEGSGwu4BNFQTAEdT4B7TGSigFDk/o7MqALY210+H4k25JyI6nP7JdAIyRyE9YdoF8HA2lAUAueXNW+Jzp+VyQ1YFgD1kvw1ASV6RiA7FAiDEIqndj0KCfxTweDJlqfUA9prOQYFUauGot+VyQ3avAGxckFccokMlp5RNud90CDKnal1/UlVC+/9ATUvPEEQ4D4Bcos4XACp4S35hiF4lwAOzWh7cbzoHmSXQu01nMEmgLADILTl9WJ+0ANi6vLYKwOy84xCNsFV59C8hVTb0kOkMJonKI6YzUGDNHlmyn5VJC4B0xDq/sDxEw8SKsAAghHEPgNGSZclHAKjpHBRMqvrWbK+d/BWA5vZOgWgcO6tKT9tgOgSRaTUtPX8H8ITpHBRU2T+zJywAtLk5IkBDwXko9BS4V1paMqZzEPnEetMBKKAUb9Hm5kg2l05YAPQm+2MApjsSikJNBKGe+EU0mii6TWegwJrRP/jEwmwunLAAEODNzuShsLO49InoVZZsNh2Bgkyz2rhvsgKAu/+RE/bvPF42mQ5B5BvCAoDco2IXVgDoSlgAznUsEYXZhkWrOlKmQxD5RWVtxzZwR0Byi8qbR57hExr3gr4NsTMBvMbRUBRS+qDpBER+IithA+g1nYMCSnBsf8fC+ZNdNn6FYMkbHQ1EoaVidZrOQORDLADIPWJN+hpg3AJAoG9wNg2FlW1lukxnIPIbAZ40nYGCy87iGT7RO4JzHMxC4bV33sKN/aZDEPmNijxlOgMFl0DOnuyaMQuA/osXHA/u/09OEGwaed9JRKNwBIBcVtnbWP/aiS4YswCw09Gz3MlDoWODy/+IxpDR9JOmM1CgiUhmwlGAsV8BiE46dECUDYFsMZ2ByI+OKjvqafBQIHKVTPgqf7w5AHz/T46woZzpTDSGWS0P7gcwYDoHBVpuIwAKCIB61+JQqIgdZQFANA4BXjSdgQJt8cgzfUxHFAC9jQteD+AYNxNRaAxVTX09ZzoTjUOhLADITTMevzB26njfPKIAsCQaczcPhcgTPAKYaCLCAoBcFYnouM/0MeYAjH8xUU5EnjYdgcjnWACQyySXAmD8i4lytMN0ACKf+5vpABRsIqgd73tjjQDUuRmGwkNt5QgA0YRkj+kEFHjZjQAklsWOA3CS63EoFMQSjgAQTUCgu01noMCb1dNcc+xY3zh0BCCK0z2JQ6Ggtv2C6QxE/iYsAMh10cHyMZ/th70C0BovwlBIWNbLpiMQ+ZmtNl8BkOtENIsCQGS+J2koFCLp9CumMxD5mVicA0CeyGYEgK8AyDkZERYARBMQmwUAeWHs0f1DCgAF+AqAHDNNoiwAiCYkQ6YTUChMPAIwMkvwBM/iUOCd1Nax33QGIj/LiKZNZ6BQOHnbitoZh3/xYAFQMlRe5W0eCrgh4VGnRBOKsAAgjyRtqTz8awcLANHMEd8kKkDKdAAiv0tbNgsA8oSIzDn8a6PnALAAICfx3SbRJCJDpSwAyBMyxjP+YAFgj1EdEBWAIwBEk7Ci/HtCnhm/AICCBQA5qcR0ACK/E9sW0xkoJNSeYA4AXwGQs0pNByDyOxXl3xPyyDhzAHY01k8FcLzneSjIOAJANAkWAOShE7c1NJSP/oIFAAPR9EwzeSjAShXg8CbRBFgAkIckU7HrkGe9BQBWypplJg8FWf+ys6eZzkDkaxopMx2BwiRzyLPeAgCJyKlmwlCQpcuSY55BTUTD1Lb5d4Q8k8Ghz/rhAgDKEQByXAms15jOQORnligLAPKMQI4cAYANFgDkOM1kWAAQTcCGdYzpDBQmemQBoMDJZsJQoEmEK0uIJiBQFgDkHZUjJwFCcKKRMBRottqcW0I0sZNMB6AQkUNP/D2wERCPASbHCTi5lGhi/DtCnjpkVNYaWat9nKEwFGAi4A83ogkIlH9HyEvHj96fxXr6ojNngNu2kgsUmG06A5GfKcBN2MhLZU+uqJ1+4A/WoFXK4X9yy5ye5hoWl0Rj2LaidgYATgIkTyVt++Az3xKxOVOb3FJSOhitMh2CyI/SGWue6QwUPiLRg898S0W4VptcFKkxnYDIj9TCfNMZKHysUbtPWmLb0ye6mKgQKnqG6QxEvqQsAMh7tmDGgd9bAmvGRBcTFUbqTCcg8qnTTQeg8BGMKgBs7kRFrtJzeCww0ViUxTF5TkdtP22NrgaIXPCaxEWLuRyQaJTNF8ZeB+4CSAYcMgIgwgKAXGalzzYdgchPSkqw2HQGCit9tQBQ6DSTUSj41JLzTGcg8hNVZQFAhmjFgd9ZgEw1GYWCTxRvMZ2ByFdE3mg6AoWTQqYc+L0FgAUAuUzn9jctnjX5dUTB19NcczQUi0znoHCSUc98FgDkiYym/sF0BiI/KEuWnQegxHQOCqfDC4ApE1xL5AiBXGA6A5Ef2KINpjNQeClHAMiAC3kwEBEAxT+ajkChdsgcAI4AkBemlyRL3mw6BJFJWxvrTwWwwHQOCrVRIwDKd1HkDQGaTGcgMiktGgd3xiSzogd+Y0EQMZmEwkMhTboSlukcRKYIdLnpDBR6owoAsAAgz8zc2rmQrwEolJ666MxjACw1nYNC75ACIDrBhUSOsmG9x3QGIhMGI5F3AOBEWDLt4Id+jgCQ196xvXkJJ55SCFn/bDoBEQ4rAPhOlrxUsS85yMmAFCpb4rGTBfom0zmIcNgrABYA5ClRfMx0BiIvWarvBkdbyR9ER1aiWABsw2EobAQNicaFNaZjEHlBARGRj5rOQTTCFkCB4QIgYzgMhZBKhD8QKRT6lsf+QYFq0zmIRqQP/MYa/Qci7+j7e5prjjadgsh1ll5qOgLRKAc/9FuAcgSATJhRkiz5sOkQRG4anvwnK0znIHqVjh4BEBYAZIh8YcOl9dyKmgLLEnwGXPtPviKjRwD4CoCMmTn9eX2n6RBEbuhprjkaCg7/k98cMgcgaTAIhZ5+SXk4CgXQyCuuY0znIDrMwWe+BWC/wSAUcgqc2R+vfYfpHERO6mmuKQXkMtM5iMZw8JlvCQsAMk6+dk9DA8+koMAoHSz5CIBTTecgGsO+A7+xFLpvoiuJ3KZA9cyKXe8ynYPICYlllWUq8mXTOYjGMboAsFgAkHEKXTk8bEpU3DQ67VIAM03nIBqLQka9AlDlKwDygznRZOm/mg5BVIgt8bnTVPAV0zmIxiOjRwAgstdkGAIEeEBU3gng/wG4DdAnTGcyQYCvJpbFjjOdgyhfETnq3wU40XQOn0gB6AZwnYp82hI9F4o7TYeiVwuAqAA71WQUggIL9yfTaxfetel3B762bUXtjJSNxapYDJGzBDgLwEkGY3phhpbgCgCfMB2EKFdbG+tPzaj9edM5DBmEYhMEnQrtjFhWpyZ3PVa1rv/gkrN7Ghqip1QMLDEZkgABdh74fVRH/YGMOXpqubUCwK8PfGH26u6dAP448gsAkLhkwUw7E10MW8+yBGcpsAhAhfdxXfXRvhW111Sv7u42HYQoFxnR/wMwxXQO9+luQLqh6FLRTlsinc8PTHt8aXv7hJvKnTJ9oAHKfRFM00MKALV3inAfFtNsyHswqgAYS9Vtm54B8AyA2wFAV8Lq74rNs1UXQ6yzRPVsAAsBFPOSuggyco02N79BWlq4TTUVhcSK2ga19d2mc7jgFQg6odIJ1S5bMp1z6zYlZGXux8gr5GIBx5tNU7VfLQAsvgLwBQHeuu3CxSfOvnP981nfsxI20LUZwGYA1wPAhkvrS2a8qAts2z5PReoBvEkUr3MptjsEZ/Ult34CwI9MRyGaTE9zTakOyo8hRb+j5SsCbFZFh1rosGy7o7Jt4+YDZ8cf1Jp7wwpIQjXuUE4qgCXyyoHfR9XCThZlvhBNRzLvAvC9QhpZtKojBaBj5BcAYEvjgtmWZS0B5BxRLNHhUQJfH8Ij0P/tXb7w9rl3bHzWdBaiiZQkSy+HYL7pHDl6WkQ6Ae1SWzpt0c55rV073Oqsf3nsHHBppC+oHjYHoNjL1qBQwftQYAEwlnltm7YB2AbgJgDY3rxkyr6h5CJR+xwR6w06/OrAbxMMK0SsVQosP+ITCJFPbIkvmAv4etmfAtgKSJeodgB2l41o59y2jpc8DWHhvV72R+MbPQdAelcsPEts62GTgehVolZ9VVtHp9f9bonHTo6I1Cv0XFGcNzLBsMzrHEeSj1W3dq4ynYLocLoSVqKz9l5AzjOdZUQG0KcAbFZYHZagw7blQa8f9ofb1tBQnqoY2AEejOQLNrB4XmvXBgCIZoasF6LFPGUsYGxLPwzA8wJgZPhvB4A24Mi5BKJ4I4DXe50L0O9uXV57z5w7uhPe9000vr7O2svF3MM/DaBPBR2i2qEa6RhMproW3rXJd/u6DFUMrBA+/H0jKtEXDvxetjcvmbI/OcjtgP1j4Gi1Tj65rcN3/022Ntafmhb7DQI5B7DPAaQOnswl0PuryqoauCqA/KL/ogVn2JHIBngzSrYf0E2AdB1YY58sST5a09Iz5EHfBeuLx34P4ALTOWhYya7pU2a3tw8CI+ew98VjAwjeevKipYL3z13T9SvTOSazraGhPFmxs14g54hgCRRLAJzsSmeq/1vd1v1VV9omysH25iVTBpODDytwpgvNJwXYoJANKtppw+rKZo29X/UuX3iKWNZTACKmsxAAYKC6tWvGgT8cGPx/ASwAfEMUHwHg+wJgpIp8YOQXgOFRAht6jg37HIicLUAdgPKCOxP5cqJx4X1VbRvvKrgtogIMJpPfd/Dh/6ICD4rq/ZaFv+rQno7Ru+cVPUveBz78/eTF0X8QAEjEY/crcK6ZPDQGFcEZVWu6NpsOUqgNl9aXTHsxHZOMdTZEzgb0LACVQF5rpl+0gZiby5WIJtIbj71LgN/keXsawGNQPKyiD9oRfXD+7Rv7nMznJ8OTJGN9AOaYzkLDBHigqrXr4LyVKACo4HkutPIVgcrnAFxqOkihRvYleGTk1w+B4XMOhtJSbwkWqWARhlccvD6L5o6PAL/raa75h2J5/0nB0dtYP09gX5Pt9Sp4CqoPA/IIRB6ZZkuHH+f2uCXRUXchRPnw9xEVHLLR3PArANXt+X0gI7co9D29jfVfMb2Exw0j5xz8eeQXAKC3sf61EdFFtqAeqrUAYgBOw2H/YypwbjRZ+mMAH/EyM4Xb1ub66ZmkrsY4r0oVeF4UnRB0iMj6iA49ctqax14Y69rQEP206Qh0KLX16dF/Hh4BgGzn4993pojYHwfwNdNBvDBS6Px+5BeAAz907YWAxiBW7UhhUCPAh/uaYpuq13T9wFhgCo3hoezMjYDMHfnSMwA6RdDhxS56xejxixdWI4PzTeegQ1mWtX30n6MAYEG3K0cA/OiTPc013wzrcPeclo4BAPeN/AIwvO966WD5GbbYZ+xorJ8apiFVMiPRGTtPVR+MiFyNSLqz8vZNL05+V7hFMtbnwGFlH9IjCwCotR3CSQA+dFJ0qPRdKIIVAV4ZKYY6YWCzJAqn6tauQ4pQmlhiWew4BT5gOgcdybb1qdF/tgDA1sz2sS8n00TxeWUlTURFwo7i0wCmmM5BR8qURJ4Z/WcLAKqnVD8PIGUkEU2mtj8eazQdgohoMjsa66eK4JOmc9CYhuYv6DhkYqoFACNbrD495i1knEJWchSAiPxuj2V/BMBrTeegIwnwpKyEPfpr1qjf93uch7Kmsb6muhWmUxARjWdbQ0M5FF8ynYPGpnrkM/5gASBQFgA+JsAVuvKQgo2IyDfS03Z9HMAppnPQuMYvACDWVk+jUG5Uz+jvrH276RhERIfb1tBQrqJfNJ2DJmDhiGf8qwWAKgsAn1PISo4CEJHfpKfv+gTcOgmUHKFjjPIffJhoRBLexqE8nN7fWfvPpkMQER2wJT53mqr+u+kcNDFVe/wRABnc9QSGT6siH1PI13c01k81nYOICABEp34BwPGmc9CEUpmyzLbDv3iwABg+g1r4GsD/Zu2GfbnpEERE/RcvOF5EP286B00qMdaW8oe9T7aL/vz5MBDBFx9fUft60zmIKNzsdOQKQKaZzkGTGvPZfmgBoGNfRL4zJWJb3zQdgojC6/GLF1ZD8CHTOWhyCukZ6+uHjQCMfRH5kTYnVtQ2mE5BROEUych3AJSYzkFZEDw+1pcPLQAiOuZF5E9qy4/uaWiIms5BROGSaKq7AJDlpnNQdiLp9OQjACU7Z2wBVwIUk5qZFQMfNR2CiMIjsayyTFV/ZDoHZS2VnJrpG+sbhxQAs9vbByGyxZtM5AQF/ueJ+BknmM5BROFgR4/+NwCVpnNQ1jaPtQIAOGIOAKDQLvfzkINek0bJKtMhiCj4EpcsmCkiXzGdg3IgMu4z/YgCwML4F5NvxRNNsXeYDkFEwabpyFUAjjKdg3Kgdvd43zpyX3lbO10NQ65QxU8Sy2LHmc5BRMHU11i3HAA/aBQZFWvcZ/qRBUC6tAuAuhmIXPFau0S/azoEEQVPYtnZFRD9iekclDONlsqm8b55RAFQte7hXQCecDUSuUIg7xmp0omIHKPRoW8CmGk6B+XsiTktHQPjfXO8o2UfcSkMuU101VMXnXmM6RhEFAyJxtibIbjUdA7Kg+Lhib49TgGgE95EvnbSYCT6LdMhiKj4bW9eMgWCVQDEdBbKg5VHASBqsQAoYgJ8aHinLiKi/O1PJr+uQLXpHJQfFfuhib4/9ghAelcXgKQbgcgToqq/2nbh4hNNByGi4tQXr30boJ8xnYPylrSSezdOdMGYBUDVuv4koOOuHaSicHwqmv6lcuiOiHI0PI9Ifg7+/ChaCnQMP8vHN94kQECFrwGK3wV98djnTYcgouKSjEavBTDLdA4qgE4+l2/cAkAgDzibhkwQ4Mq+pvqzTecgouKQiMc+BMXbTeegwohY9092zbgFQDQTuQ/cECgISqD2DVvic6eZDkJE/pZYUT9Hod8znYMKppLSv0x20bgFwOw71z8PyJhHCFLRqYpgKo/vJKJxbWtoKFfb/h0g/LBQ/B6vWtf1t8kuGn8OAAAB7nMuD5mkwPsS8br3mM5BRP6Uqhi4GkCd6RzkiHuzuWjCAgAsAAJFoT95/OKFXNNLRIcY+XDwIdM5yCGKSYf/gclGACSSVRVBRePoSMa6sae5ptR0ECLyh97lsYUKXWU6BzlH1c7qw/uEBUDlmvXbAfQ7koj8YnF0qOwq0yGIyLytzfXTxcItAKaYzkLOEKBv7h0bn83m2sleAQDAHwvMQz4jqp/sa6z9gOkcRGSOroSVTtrXA6g0nYWcpFk/syctAFSEBUAQifykt7F2sekYRGRGorP26wI0mc5BTpO7sr1y0gKgVOx7AKQLykN+VC4ityaWxY4zHYSIvNUbr30/IF8ynYMcl0aqtD3biyctAGav7t4JwfpCEpFvzbJL5OZ7GhqipoMQkTd6G+vPE8g1pnOQG/ShqnUP78r26mzmAEBtzgMIKoEunVkx8A3TOYjIfVsaF8wWsW8DUGY6CzlPcnxln1UBYCl+n18cKgYKXNYbj73LdA4ics+2FbUzLETWAuBrv4Cyxc7pWZ1VAVA5pfIRAJNuK0jFS4CfbYnXLTCdg4icl1hWWZa25VYI5pvOQq55obp244ZcbsiqAJCWlgyAO/OKRMXiKAu6prex/rWmgxCRc7S5OaIlFTco8A+ms5Cr1spK2LnckFUBAAACXZt7Hioyrxexb9Lm5ojpIERUOAWkP7n1J4A2m85CbpOcn9FZFwBIlf0BwFCuHVDReVvfYP/XTIcgosIl4rVXKvSjpnOQ64Zs7M15sn7WBUDVuod3QbI7YICKmwj+vS8e+7jpHESUv76m2Ge41j8kRNrntfbuzvW27EcAAMDGmlw7oKL1g7547dtMhyCi3CUaYx+G4numc5A3VNGWz32Sy8WJSxbM1HTk6Vzvo6K1B0Cv6RBElLNaAJzLEw622vap2R4ANFrOD/K+eOxBAOfkeh8RERE5S4AHqlq7zsvn3txeAQCA6q35dEREREQOE8n7mZxzAZCJ4BYAmm+HRERE5IyMnV6d7705FwDzV3c/CaAr3w6JiIjIEevntW3alu/Nub8CACCClnw7JCIiIifILYXcnVcBYNnWTeBrACIiIlM0Y9m/K6SBvAqAOW0dTwP6QCEdExERUd7uG3kln7e8CgAAEMVvCumYiIiI8iRS8DM47wLARuR3AFKFBiAiIqKclK20HgAAGalJREFUpDJWtKD3/0ABBcDcto6XoMj58AEiIiIqgOL3829/5OVCm8m7AAAAFdxQaAAiIiLKnog68uwtqABIlw3dBqDgKoSIiIiyoPg7UntanWiqoAKgpqVnSEVudiIIERERTcLCr6vW9SedaapAqvoLJ4IQERHRxERtx565jhzr2xePdQNY6ERbREREdCQBHq1q7VrgVHsFjwAAgKj80ol2iIiIaGwq+JmT7TlSAJTaqesB7HOiLSIiIjrC/lTp0I1ONuhIAfC6tY++ooK8zyQmIiKiCYjcXNPS83cnm3SkAAAAK4OfONUWERERjSY/dbxFJxvri9d1Ahpzsk0iIqKQ21jd2lXrdKOOjQAM01XOtkdERBRyIq6MsEedbMzGvl9bmPoNABVOtktmiOJnanGnR6JiIyrHKvSjpnOQI3bZuvcmNxp29BUAAPTFa68C5HNOt0veU7Xmz23r2GI6BxHlZkt8wVwLEf7dDQBVvWpuW/dlbrTt8CsAIGPh+wAyTrdLREQUMhmxS37kVuOOFwDzV3c/KSJtTrdLREQUMmuq165/wq3GHS8AAABif9+VdomIiEJCRb7nZvuuFABVq7vbBdjgRttEREQh0Dl3Tedf3OzAnREAAFD8wLW2iYiIAkyg33W7D9cKgIGTrN+q4Cm32iciIgqoJ5/ZNeNmtztxrQBYtKojJapXudU+ERFRECnkO0vb29Nu9+PeKwAAR2vkWgAvudkHERFRgLw8OJj+hRcduVoAnNzWsU8hV7vZBxERUYB8f+Fdm/Z60ZGrBQAA2JHoDwF48g9DRERUxPakyoY8+9DsegEw//ZHXhbA8WMMiYiIgkV/XNPS83evenO9AACACFLfArDPi76IiIiK0F4rYn/Hyw49KQBOa33sBVW9xou+iIiIio/8uPL2TS962aMnBQAAlGZKvgmOAhARER1urxVJf9vrTj0rAGbfuf55QK71qj8iIqKiIPITrz/9Ax4WAACQjso3wFEAIiKiA/ZGdcjzT/+AxwXA6bd1PAfBD73sk4iIyLdUv3da62MvmOja0wIAAEpEr4TCs2UOREREPrWzzM54OvN/NM8LgNmru3cq1Ng/MBERkR+I4srXrX30FVP9e14AAMDU8ilXAXjWRN9EREQ+8NxRsIy+EjdSAMxqeXC/inzdRN9ERESmierXTm7rMDop3kgBAAC7T5BVAvSZ6p+IiMgIxeMDJ0WML4s3VgAsWtWRslUvN9U/ERGRCZbIZYtWdaSM5zDZ+dy27tUQ/NlkBiIiIu/I2srWzt+bTgEYLgAAQNT+IgDbdA4iIiKXpWyk/810iAOMFwBVrRu7FHqT6RxERERuEuCH81o39ZrOcYDxAgAAIlLyFQB7TecgIiJyyd+ilv6P6RCj+aIAqFyzfju4LJCIiIJK5D9nr+7eaTrGaL4oAAAgVZr8FpcFEhFRAPU8O1Dxc9MhDuebAqCmpWdIVXwzOYKIiMgZ+vml7e1p0ykO55sCAACq2zrvAGSt6RxEREQOua26tfuPpkOMxVcFAABYwOcADJrOQUREVKD9yES/aDrEeHxXAFS2dvar+mumJBERUa5EcEX12vVPmM4xHt8VAACwY/eMbwLSZToHERFRnjYNnGB9x3SIifiyAFja3p5WtT8GIGM6CxERUY4yNvBhP+z3PxFfFgAAMLete70A3zedg4iIKCciV81r7dpgOsZkfFsAAMBRav0ngK2mcxAREWXpyVRp8r9Nh8iGrwuAk9s69tkqlwJQ01mIiIgmI2p/rKalZ4/pHNnwdQEAAPPaOu+W/9/evUdHWd95HP98n5lJALmp9QJeEMhMAijkIlXrZanVSoAk3tIL1dr2oLR2deulrZ7aFV13T+tud7f21HrpsVZatzZVySSBtrItpaWuQDITECQXRAERi0qASpK5PN/9I4qiXHKZ5Ps8M5/XOf7BOZ7DGx3m983veZ7fAyy27iAiIjoikcfDdc2/t87oLc8PAACQCoRuBfCGdQcREdFhvCkJ/ZZ1RF/4YgCY8uzqt6C4xbqDiIjoUBS4Kbwstsu6oy98MQAAQKQu9j88JpiIiLxHGgqjsV9ZV/SVWAf0xcuVZ56UQqgZwEnWLURERADedIEZRdHYDuuQvvLNDgAATIq++IaoLrTuICIiAgCB3ujHxR/w2QAAAOG6eC2gj1h3EBFRjlM8HI7Ga6wz+st3AwAAjNTALQA2WXcQEVHOak8OS9xuHTEQvhwAxtc17hd1vgAgYd1CREQ5J6mO+wW/HPhzOL4cAAAgXNfYJIK7rTuIiCjXyF2FS5pXW1cMlG8HAAAoKIndL8AfrDuIiChnrAznT/b0a357y1ePAR5Ky7wZp4g46yA4zrqFiIiyWkdAnRmT6xq3Wodkgq93AACgsL75NYhcb91BRETZTUW+mi2LP5AFAwAARKJNz0DkcesOIiLKWo8V1jY9ZR2RSVkxAADA8Lz8GwGJWXcQEVHWWTdSnZusIzLN9/cAfNBLlxefEXBlLYDjrVuIiCgr7BbHmRle0rjZOiTTsmYHAACmLIm/ApUvAXCtW4iIyPdcQK/NxsUfyLIBAAAidU31AP7VuoOIiPxNoPdGovGsfQtt1g0AABAujS2CYql1BxER+dZzBfnh+6wjBlNW3QPwQa/OPevY7kBwDYDJ1i1EROQrr6QDobOnPLv6LeuQwZSVOwAAMKFh/W4XciWA/dYtRETkG52izlXZvvgDWTwAAEBRtGkdRHlIEBER9YpCvxaua2yy7hgKWT0AAECkNv6kQH9s3UFERB6neKAwGv+5dcZQCVoHDIVEfvLWUHdoBiAXWLfQkNkO4A3rCPK1EwGcZh1BQ2bl3nHO7dYRQylrbwL8sJeu+PjxwXTyrwpErFto8IngznBt7HvWHeRfrZWl3wL0+9YdNCQ2SxLnhZfFdlmHDKWsvwTwninPrn5L08FyAH+zbqHB56oMs24gfxNRfoZyw1sBV8tzbfEHcmgAAIBIw5qXXeiVALqsW2hw8cubBkzBz1D26xQXFZPr423WIRZyagAAgKJofJVAvwgeF5zdVI+1TiB/U8Vx1g00qBSiC8L1seetQ6zk3AAAAOFovEYE37HuoMEkJ1sXkL+pgJ+hrKbfjtTGn7SusJSTAwAA9Nwgpo9Yd9Bg0ZOsC8jfRHCidQMNmoci0fi/W0dYy9kBAADC+eEboaiz7qDBIBOtC8jnFJOsEyjzFPjta3vH3GTd4QU58xjg4WyqLBzlYMRKAMXWLZRZyfzE8dNqNrxt3UH+s+Xy4rFJV3Zbd1CGibwYyJMLJtc07rFO8YKc3gEAgKJoyz4JpivQc3AMZZG8rnye+UD9ktRAoXUDZdw2Tadnc/F/X84PAAAQfmbd9oCrFyuw07qFMki0xDqB/EnULbVuoIzahYBcVljf/Jp1iJdwAHjX5Pp4m0Iug4JbxllCgXOsG8if+NnJKntEndmRZ5tesg7xGg4AH1AUbVoHx5kD6D7rFsoEOde6gHxK8XHrBMoE3aeO++lcebtfX3EA+JBIbeMLLlAO4B3rFhooLWyvmsmXuVCfbLyybBwERdYdNGCd4qCycEnzausQr+IAcAhF0fgqQK8A0G3dQgOjmrrUuoH8JZRyy8EnpPwuAWh1eEl8hXWIl3EAOIxINP6cinweQMq6hfpPIbOtG8hf+JnxvZSKfC4SjTdYh3gdp9yjaKssvUahPweHJb96p7MrfdKM36/jJR06qh0VZSP+Lu4bAEZat1C/qAALwtHYY9YhfsBF7SjC0aZfQGQBALVuoX45Ztjw4DzrCPKHfY5WgIu/XymAG7n49x4HgF6I1Db9TFRuBYcAf1L9vHUC+YMDfM66gfpFReS2SDT2kHWIn/ASQB+0VpUuhOqD4ODkNyl13TN4CAgdycYry8YFU+6rAELWLdQnCugtkWj8h9YhfsOFrA8itU0PQ/Ra8MZAvwk6jiywjiBvC6R0Ibj4+01agAVc/PuHOwD90FZVcrUqfgkgz7qFem2HJPdNCi9r56Od9BFt5QX5Ghr1MoDx1i3UawmBXhOOxmusQ/yKOwD9EK6N/UYVlwPotG6hXhvvhkZ+0TqCvElDo68DF38/6VbVz3LxHxgOAP1UWBdbBmA2jw32DwHu+OOsWUHrDvIWra4OAHq7dQf12jsQzCusiy+xDvE7DgADEInGVoorlwHosG6h3pBJp47ac511BXlLe3f7dQDC1h3UKx3i4tJIbWy5dUg24D0AGdBWOaNE4fwOwAnWLXRUOzq70hEeDEQAsK36vOGd3V0tAPjOCK9TvK0Bt5xn+2cOdwAyIBxtjolgFoAd1i10VOOHDwvcYh1B3tDZ3XUbuPj7wQ4E5QIu/pnFHYAM2lQxfaKDQAMEU6xb6Ij2u5o+s6hu3RbrELKzqWL6REcCLwIYYd1CR6B4KR3QOVOWxF+xTsk23AHIoKK6dVvy3dT5CvmjdQsd0QiRwIPWEWTLEecBcPH3NAFWKZyLuPgPDg4AGTahYf3uVH73bBUstm6hwxNgdmtV8XzrDrLR8/9e+I4IDxPgiUR+4uLCusY3rVuyFS8BDBIFpLWy9G6B/jP439mrOgLqzJhc17jVOoSGTsu8GaeIOOsgOM66hQ5JIbg/XBu7U/j+lUHFHYBBIoAWRpsWKfTLABLWPXRIY9OO+5gu4t+DXKGL4DiO8wQXf89KqOBLkdrYHVz8Bx+/+AZZYTT+c1elHDwrwJsUn2pvKv6udQYNjdbGkrsVuNi6gw6pw4E7u7A29oR1SK7g1vQQaasqmaqKBgBnWLfQR7gqWlFYG19qHUKDp7Wy+FJAlgEIWLfQR7wigrnh2thG65BcwgFgCG2ZM/PkVDBVp8DZ1i30IYq3XUl/oii6rsU6hTJvU+X0QkcDf+XWvyetCaWClROXrtlpHZJreAlgCE1cumbnMer8AyC/tG6hDxEc5yDQ0FZewtMcs0xbeckJ757PwcXfc+SXI9WZxcXfBncAjLRWldwMxX+A7x/3FAX+OkqdS8fXNe63bqGBa/709GOGDwssB3CudQsdJAnFbZG62I+sQ3IZBwBDmyqLz3cgNQDGWbfQQZaH9o6pmLhiRZd1CPXfhuppeXndeUsUKLduoYPscuB+tiDazAPTjPESgKGiaHyVC5wtwCrrFjrIJYnRe3619oYy7s741NobykKh7rwaLv5eo39JBZ0ZXPy9gQOAsaJobMf2vWNmQfB96xZ6nwBVo3fqs9uqzxtu3UJ901ZekD96Z/opAJXWLfRB+kgyP/mpqc80vm5dQj14CcBDWquK50PlUfB8ci/5k4v9FUXRln3WIXR0717zfxbApdYtdEAXRG6M1Db9zDqEDsYBwGNa5pXMEAdPA5hs3UIHNKvrzi2sb37NOoQOb8ucmScng6kogJnWLXRAuwu5qijatM46hD6KA4AHvTr3rGO7A6HFgM61bqEDeFCJh/GgLQ9S1OW7qesmNKzfbZ1Ch8YBwKMUkLaKkn+E4H4Aw6x7CACwRwQLwrWx31iH0PvaqkquVsVPAYyxbiEAQKeKfDNS2/Qgz/P3Ng4AHtd6RekUpPVJAMXWLdRDBYtH5A1beFrN853WLbmsrbwgX4Oj7ofgZusWOmCDC5nPLX9/4ADgA23lBfmaN+oeKL4JPrnhERJzgM8URJvarUty0cY5JROCQX0KkHOsWwgAoFD8SFL7vhVe1t5tHUO9wwHAR9qqSi9T1Z+BBwd5xV6BLghH4zXWIbmkpar0s6L6CIDR1i0EAHgd0Osi0fhz1iHUNxwAfKalouxjEPenAlRZt9B7tD6gga9Prmvcal2SzTZVlowXwfdEca11C/UQkSWuK9cX1jW+ad1CfccBwKdaqkq+KIoHARxj3UIAgP2iuHf7vjE/+OSKFSnrmGzyx1mzgqeM7vg6IPeCP/V7RSegd4aj8Qd4o59/cQDwsZaKsiIR9xcAyqxb6D0Sg8jXIrWNL1iXZIO2itJzVfQn4E2wXtKo6lxTWNe4yTqEBoYDgM/1/HS091ZAFwHgsbXe4IrisWQa901dGnvVOsaPNs4pmRAI4rsCfBm88dUrOgFZ9Nre0f/JXa7swAEgS7TOnTkJgdRD4BGoXpJUwa8cce4JL2ncbB3jB5sryk5Pw70NghvA8y+8ZKWL9A1F0XUt1iGUORwAskxbZXG1Qn4C4HjrFjqAg8BRcOH3rA5Avh2ONj3Ka/3ZhwNAFuo5Ez39AKDV1i10kIQCi6H6cGFdfI11jBe0VBTPFJGvArgGQJ51D71Pob8OIXXzpOiLb1i30ODgAJDFWiuL56JnN+A06xb6iI2ieCIxLPHotJoNb1vHDKW28nNGayj5OUAXAii17qGPeB2KmyJ1saetQ2hwcQDIcj1ftonvAVgI3kzlRe9A9dei8mhBfez/snWbVQFpn1dyropeD5HPgI+vepGrIg85idCd4WUv7LWOocHHASBHtFSUXSDi/gh8nMrLtgOoV9G6vD1j/zBxxYou66CB2DJr1rDEmI6LRaUCwDwAp1o30eFIzIV7U1E0vsq6hIYOB4AcotXVgdbutq8I5D4AJ1r30BG9IyLPwdX6ZMhZOvWZxtetg3pj45Vl40JJd44rqBDgEvAnfa97Q0XvipTEH5NFcK1jaGhxAMhBm6vLxqQTehdUbwZvvPKLNoisElf/4irW7hvvbDz7kcakZdDaG8pCo3a4UxHQmaJyAYDzARRYNlGvJQD5oSRD93G7P3dxAMhhm+cVh9MiP4CgwrqF+qwbwIsAmkXRqiJtaZE2N69ry7SaDX/P5G+0oXraSCcxbGJANSyqYRVEAMwAcCaA/Ez+XjQkogFXb59cH2+zDiFbHAAIrZXFlwLyXwCmWbdQJug+qGxXkZ0CvClAhwIdEOwRV1MAoII9ACCKMQDgQgMizlgBxmrPPx8T1ZMheiogoyz/NJQxGwC9hW/to/dwACAAB44U/gqg9wE4wbqHiDJmN6D3vLZ37I95hC99EAcAOsiG6mnHhbrz/xnQr4H3BxD5WTegP0nmJ/8l186aoN7hAECH1F418zRXk3cB8hUAQeseIuo1F5CnkQ7cEWlY87J1DHkXBwA6op5XDuu9gF4Nfl6IvG65C7mtKNq0zjqEvI9f6NQrLRXFMx2RexQot24hog9RLHUFdxdFY2utU8g/OABQn7TMK5khjnyHOwJEnrBcHfc7hUuaV1uHkP/wC5z6hYMAkSku/DRg/OKmAWmrKCtV0TsAvQp82RDRYEor9GlHA98P1zU2WceQ/3EAoIzYVDF9ooPANyC4HsBw6x6iLJJQwVNwnX8rrGvcZB1D2YMDAGXUljkzT06GUt+A4qtAzylzRNQveyB4KJQM/vfEpWt2WsdQ9uEAQINiQ/W0kaHu/PlQ/QYEU6x7iHxksygeDQb04YlL4h3WMZS9OADQoNJFcNpiJRdD9Z8AmQt+5ogOSYBVgP6wID/8jNTUpK17KPvxy5iGzKbK0umO6o0Qnc8XzBAB77646UlX5EEe3kNDjQMADblNlYWjHBzz+XffN1Bs3UNkYJMoHs9zU49MaFi/2zqGchMHADLVXlX8CVVZqMDVAEZY9xANov0C/AYuHgrXx563jiHiAECe0FZ+zmg3L3G5KK4F8Cnws0nZoxHQxcn85GK+lY+8hF+y5Dk9LyBKfxmQawGMs+4h6ocdECxW13mcz+6TV3EAIM/SRXBaG8s+IXCrIZgP4GPWTURHsEcFUQdSs33P6GWfXLEiZR1EdCQcAMgXtsyaNSw5eu8ciM6HYi6AYdZNRAA6ATSoyJNOYu/S8LL2busgot7iAEC+s636vOFdie5LXGi1qF7ORwppiHUC+r8qUuMk8paEl72w1zqIqD84AJCvbas+b/j+RPdsUVwF6FwAY62bKCt1ANKggqdH5OX/9rSa5zutg4gGigMAZQ2trg60dr18njjuPCguAVBm3UR+pi8DWC7i1Cfyun83rWZDwrqIKJM4AFDW2jyvOOwGnHmqWg7gQvC+ATqyTgB/EZWlIqgviDa1WwcRDSYOAJQTtlWfN7wz0XU+gEve3R0oAeAYZ5G5d3/KB5an0fnbomjLPusioqHCAYBy0suVZ56U0tDFEFwE4CIAU8C/D9lOAbwEYCUUK4OS/MOk6ItvWEcRWeEXHhGA9iumn+imAhcCuAgiFwJ6FoCgdRcNSAqQ9VD9M0T+JEn9c3hZbJd1FJFXcAAgOoTmT08/Zlh+qEQkXaYiZaK4EMAZ1l10eArsFOhahdPoCBqD4v554pJ4h3UXkVdxACDqpc0VZaenkC4FpEQExei5j+A0664ctQ1ATBVxQGNBBJom1zVutY4i8hMOAEQD8NIVHz8+4CZLBHIWXJ2qDqZBMQU8jyBTOiB4SVxsgCMbFbo+7YRiU55d/ZZ1GJHfcQAgGgQt82acIo5MhUoRgAIABRCZDOhEAHnGeV6TAGQLVDcDaAfQDtFN6urGwvrm16zjiLIVBwCiIaTV1YGWrpbTRQOTJCCni7qnK+R0iJwKV0+DYAKAEdadGbYfilfhyDaobhfoVhVnq6Z1qxvUzUWh8DapqUlbRxLlGg4ARB7TVn7O6HSoc5xo6AQ4eoLjuuNccU6E4ARRPVaAsSoYCxdjVXCs9FxuGKpDjroU6BDFbjjoEEWHAh0qshuKXY66f3Md53W4sksluSuQHP46z8on8iYOAERZ4tW5Zx2bcINBdYKjJJgaJiLDNa0j1UHowL+kKvKh+xMU6ICIvvdrcZGUgPxdVTs1FewSN7Uvz0mlTm9Y3yE9z9ITURb4f/SbW1eVZ1ZTAAAAAElFTkSuQmCC;" parent="1" vertex="1">
          <mxGeometry x="568" y="-692.83" width="97" height="97" as="geometry" />
        </mxCell>
        <mxCell id="pmpaLFh2XB2QNdnhBSW1-4" value="&lt;font color=&quot;#cc1d28&quot; style=&quot;font-size: 28px;&quot;&gt;&lt;b style=&quot;&quot;&gt;Prometheus&lt;/b&gt;&lt;/font&gt;" style="text;strokeColor=none;align=center;fillColor=none;html=1;verticalAlign=middle;whiteSpace=wrap;rounded=0;fontSize=12;fontFamily=Helvetica;fontColor=#095C86;" parent="1" vertex="1">
          <mxGeometry x="532" y="-760" width="150" height="90" as="geometry" />
        </mxCell>
        <mxCell id="0u8f8S5nWa_Rwj-gaqvb-1" value="&lt;font color=&quot;#ff0fbf&quot; style=&quot;font-size: 28px;&quot;&gt;&lt;b style=&quot;&quot;&gt;PromQL&lt;/b&gt;&lt;/font&gt;" style="text;strokeColor=#A50040;align=center;fillColor=none;html=1;verticalAlign=middle;whiteSpace=wrap;rounded=0;fontSize=12;fontFamily=Helvetica;fontColor=#ffffff;" vertex="1" parent="1">
          <mxGeometry x="420" y="-682.5" width="150" height="90" as="geometry" />
        </mxCell>
      </root>
    </mxGraphModel>
  </diagram>
</mxfile>
